<svg id="Layer_1" data-name="Layer 1" xmlns="http://www.w3.org/2000/svg" viewBox="0 0 333.48 163.72"><defs><style>.cls-1{fill:#454546;}</style></defs><title>Artboard 1 copy 8</title><path class="cls-1" d="M331.89,149.63h-6.16c-4.06-52.69-48.65-53.55-88.2-54.32C200.84,94.6,169.15,94,169.15,57V0h-5V57c0,37-31.68,37.6-68.37,38.31-39.56.77-84.14,1.63-88.2,54.32H1.61c-1.56,0-2.08,1-1.15,2.28l8,10.86a2,2,0,0,0,3.4,0l8.35-10.92c.95-1.24.45-2.25-1.11-2.25H12.57c1.64-20.62,9.9-33.81,25.66-41.14s37.07-7.78,57.61-8.18c30.51-.59,61.91-1.2,70.79-26.84,8.89,25.64,40.28,26.25,70.8,26.84,20.54.4,41.78.81,57.61,8.18s24,20.52,25.66,41.14h-6.28c-1.56,0-2.08,1-1.16,2.28l8,10.86a2,2,0,0,0,3.41,0L333,151.88C334,150.64,333.45,149.63,331.89,149.63Z"/></svg>