<svg id="Layer_1" data-name="Layer 1" xmlns="http://www.w3.org/2000/svg" xmlns:xlink="http://www.w3.org/1999/xlink" viewBox="0 0 616 462"><defs><style>.cls-1{fill:#fff;}.cls-2{fill:#f5b847;}.cls-3{mask:url(#mask);}.cls-4{fill:#e16e2b;}.cls-5{mask:url(#mask-2-2);}.cls-6{fill:#64286d;}.cls-7{fill:#fce0ac;}.cls-8{fill:#f8c770;}</style><mask id="mask" x="8.67" y="5.74" width="581.63" height="450.48" maskUnits="userSpaceOnUse"><g id="mask-2"><polygon id="path-1" class="cls-1" points="590.29 456.21 8.67 456.21 8.67 5.74 299.48 5.74 590.29 5.74 590.29 456.21"/></g></mask><mask id="mask-2-2" x="8.67" y="5.74" width="581.63" height="450.55" maskUnits="userSpaceOnUse"><g id="mask-2-3" data-name="mask-2"><polygon id="path-1-2" data-name="path-1" class="cls-1" points="590.29 456.21 8.67 456.21 8.67 5.74 299.48 5.74 590.29 5.74 590.29 456.21"/></g></mask></defs><title>Artboard 1</title><g id="Full_logo_color-Copy-4" data-name="Full logo color-Copy-4"><polyline id="Fill-1" class="cls-2" points="247.96 53.9 266.97 57.48 278.85 41.39 285.4 22.33 305 20.54 313.32 33.65 316.3 52.11 330.56 56.87 355.52 54.47 362.06 39.6 381.68 47.94 375.73 66.41 367.41 78.32 372.75 95 391.78 106.32 417.92 100.36 422.68 112.27 405.45 132.53 398.9 137.29 397.13 150.99 409.01 165.88 423.87 173.03 420.3 192.09 391.18 196.86 379.3 218.89 396.53 239.74 377.51 261.19 353.15 244.51 327.59 257.61 326.07 289.48 304.42 290.98 293.12 265.36 269.35 260.59 249.14 284.41 229.54 275.48 233.68 252.84 214.08 234.97 186.74 247.49 173.67 229.03 193.87 207.57 187.33 180.17 152.27 180.77 152.87 152.18 176.64 145.03 181.4 142.65 188.53 125.97 164.16 106.91 171.29 76.53 202.78 90.23 220.02 74.15 214.08 44.37 236.54 27.15 241.42 44.96 247.96 53.9"/><g id="Group-5"><g class="cls-3"><path id="Fill-2" class="cls-4" d="M180.45,106.61l.54-1-.47.88-.07.1Zm8.67,117.21.54.7.12.3-.66-1Zm53,44.1,1.2.42h0l-.48-.1-.73-.32ZM415.27,182l-.19,1.28-.86,2.57-.3.45,0,.17-.43.7-1,1-1.31.64-.52.06h0l-.55,0-15.41-3.73-3.54-.89h0l-2.51-.62-1.57-.2-2.47.12v1.08l-2,6.86-2,5.08-3.88,7.93-12.1,18.09,1.38.92,2,2.11,13.33,11.45.13.27.34.17.22.21h0l1.73,2.31.34.82.13.07.61,1.7.16,1.26,0,.35v.05l0,.29-.26,1.15-.71,1.39-.77,1-.77.64-.33.15-.17.15-1.43.55-1.62.24h-.27l-1.46-.35-.08.07-2.32-1.16-11.86-12.63-2.9-3-1.08-.9-.06.09.05-.1-.27-.17-1-.47-.5-.38-1.05.24-.3,0-12.71,9-6.91,4.07-4,2-4.79,2.11-5.59,2.06-1.27.58L319.35,252l-.45,1-.13,1.81.2,2.24,4.3,15.43h0l.5,1.77,0,.18.13.34.11.78.11,1.53-.07,1.07,0,.09-.12.64v0l-.62,1.69-.66.94-1.16,1-.65.39-1.17.45-2.69.3-.85-.07-1.6-.49-.58-.32-.84-.75-1.73-3.29-2.74-16.4v-.11l0-.44-.94-4.6h0l-.13-.41-1.33.47,1.32-.51-.17-.45-.67-.86-.48-.27-1-.3,0,.14,0-.14-1.27-.13-6.05.43-5.14.13-9.88-.41-5.53-.48-5.1-.71L266,252.48l-1.78-.16-1.76.35-1.06,1.14-5.57,18.87-.18.63h0l-1,2.32-.42.47v.3l-.76,1.1-1.11,1.07-.89.52-.77.23-1.05.16h-.37l-.49,0-2.37-.51-1.73-.91-1-.92-.78-1.16-.18-.49-.1-.16-.27-1.59,0-.07v-.56l.06-.86.49-2.25.52-1.48h0v-.07h0l0,0h0l5.7-13.48,1.23-3.72.24-1.56-.07-1.32-.11-.22v-.34l-.74-.87-1.58-1.1,0,.08,0-.08-4.45-2.28-4.5-2.63-5.61-3.74-5.88-4.64-9.49-9-1-.74h0l-.44-.21v0l-.2-.15-.48-.08-1.2,0L213,223l-15.54,13-2.59,1.54-2,.55h0l-.68,0-1.24-.15-1.49-.54-1.16-.7h0l-.28-.24-.92-1.07-.77-1.63-.24-1.18v0l0-.62.26-1.45,1.1-2.19,1.09-1.37.54-.61h0l0,0h0l1.12-.93h0l13.36-8.71h.1l5.2-4.16-.71-1.49-4.92-8.91L199.44,194l-3.09-8.93-1.1-4.33-1-6.66-.2-1-.81-1.37-.75-.24-1.87-.2v.3l0-.31-19.84,2.48-1.8.08h-.27l-3-.48-1.21-.52-.72-.59-.84-1-.29-.62-.57-3.37,0-.56v0l.2-1.24.77-1.35.92-1,2.1-1.19,2.27-.44h0l.95,0h.54l14.68-.67h.13l3.15-.16,2.12-.37,1.34-.59.83-.67.78-1.21.31-1.85,0-1.55.1-5.85.38-4.74.88-5.86,1.43-6.54,1.76-5.62,2.2-5.26.29-.75.36-1.68-.11-1.09-.53-1.21-1.81-1.89L198,114l.1-.14-16.74-8.2-.24-.12h0v0L176.87,103l-.46-.47-.57-1h0l-.36-2.28.1-1,.51-1.56,1.07-1.77,1.15-1.27,1.14-.76,1.39-.27.59.06,4,1.6,1.73,1.13h.25l14.24,8.12,3.76,1.72.58-.12.88-.35,6.87-9,3.76-4.42,8.19-8.22,5.57-4.74L237.5,74l-.61-1.22-.11-.47L235.89,70,226.7,55.44l-.83-1.24-.12-.09-.84-1.63,0-.55-.25-.25-.35-1.33-.1-1.08.06-.8.06-.29.71-1.79L226,45l.52-.5,1.47-1h0l.12,0h0l1.09-.38,1.42-.13,1.41.23,1.17.48,1.34,1,.78.94.13.06,10,19.28,0,.36.39.39.27.4h.34l-.18.16.19.21,1.29.91.77.16,1.48-.2L255.88,65l5.56-1.93,8.48-2.1,8-1.43,9.74-.76,1.45-.2,1.81-1.17.21-.62.47-2.84,0-.23,0-.81V51.88l.05-1,0-.12.52-15.64v-.86l0-1,.24-1.76v0l.25-.86.67-1.14.71-.63,1.19-.65,1.32-.22h.87l1.06.14h.89l.63,0,1.57.33,1.71,1.17.41.53.11.29.18.26.07.14.3,2.68v.37l-.2,1.94h0l-1.39,15.31-.42,4.65.34,2.46.59.57.84.69,6.67,1.3,6.69,1.64L327,65.78l5.45,2.29,6.87,3.64,2.91,1.48,1.21.23h.24l.39,0,.42-.23,1.19-.8.88-1L346,71l.64.32-1.2-.81,1.29.67,9.93-14.39h.2l.54-1.08.95-1.53,2-2,1.53-.76,1.21-.25h0l.4,0,1.06.06h0l.41.09,1.28.49L368,53.19l.35.5.11.09.91,1.63.33,1v0l.11.52,0,.31.07.13h0l0,.48-.2,1.28-.53,1.42-.32.54,0,.15-.38.4v.26L357.36,75.3l-.81.74-.07.22-.2.19L355,78.53h0l-.3.57-.88,2.38,3.11,2.69,4.41,4.39,4.25,4.93,5.26,6.82,2.85,4.27,5.37,9.68.46.73.76.69,1.27.54.71,0,2.64-1h0l.4-.07.22-.16,15.61-6.45.22-.08v0l3-1.11.11-.11,2.71-.45.77.11,1.46.8,1.43,1.89.63,1.32.48,2h0l0,.33,0,.62v.08l-.16,1-.65,1.56-.51.66-.55.41-.72.42h0l0,0L389,125.15l-2,1-1.2,1-.74,1.08-.3,1.39v.1l0,.24,1.9,7.51.83,4.36.83,8.09.16,5v1.85l-.35,5.34-.66,5.36-.07,1,0,.92.6,1.71.25.27.82.74,1.4.72,19.12,3.53v0l2.89.66,1,.45.6.45.85,1.43.26,2.16-.06.19,0,.28ZM174,102.17l.51-.24.84-.26-1.35.5ZM364.8,49.33l0,1.05-.18.84.2-1.89Zm70,107.13A13.64,13.64,0,0,0,433,156a20.49,20.49,0,0,0-2.29-.28l-.74-.05c-.5,0-.83,0-.93,0l-13.34-.14c-.2,0-.95,0-1.74,0l-.29,0a7.37,7.37,0,0,1-1.34-.18c-.77-.19-1.31-.34-1.8-.51a5,5,0,0,1-2.93-2.29,8.44,8.44,0,0,1-.72-2.39l-.11-6.16,0-.27a9.6,9.6,0,0,1-.05-1.37,2.17,2.17,0,0,1,0-.26l0-.22c0-.09,0-.18,0-.28.45-2,1.8-3,3.81-3.89a11.58,11.58,0,0,1,2.43-.65l16-2.79a12.5,12.5,0,0,0,3-.92c3.48-1.83,4.92-5.06,4.38-9.86-.79-7.17-1.86-11.53-6.64-23.19L428.87,98c-2.71-6.66-4.67-11.48-8.91-17.29a7.33,7.33,0,0,0-3.38-2.92,4.48,4.48,0,0,0-1.5-.28,9.31,9.31,0,0,0-3.48.64A19.44,19.44,0,0,0,408,80v0l-.48.31c-1.82,1.15-8.56,5.41-13.35,8.4-.15.08-.3.18-.45.28l-.32.21A6.41,6.41,0,0,1,390,90.5a3.49,3.49,0,0,1-.9-.12l-.14,0a6.89,6.89,0,0,1-2.36-1.76l-4.1-5.23-.18-.2a7.14,7.14,0,0,1-1.28-1.62,4.72,4.72,0,0,1-.55-2.49,8.47,8.47,0,0,1,1-3.2,10.52,10.52,0,0,1,2.15-2.57l10.76-9h0A14.73,14.73,0,0,0,397,62.2c3.13-3.69,3.15-8.09.06-12.4-3.59-5-10.38-10.44-16.55-15-7.72-5.75-13.38-9.15-20.18-12.09a4,4,0,0,0-.56-.22A9.26,9.26,0,0,0,357.3,22,8.34,8.34,0,0,0,350.1,25a16.7,16.7,0,0,0-1.24,2.28l-6.1,13.2-.06.16a18.21,18.21,0,0,1-1.18,2.68c-1.29,2.1-2.39,3.62-4.81,4.06a4.42,4.42,0,0,1-.78.06l-.48,0a13,13,0,0,1-2.84-.63l-3.94-1.48-.14-.05a13.49,13.49,0,0,1-2-.89c-2.51-1.6-2.79-3-2.75-4.21,0-.1,0-.21,0-.31A12.2,12.2,0,0,1,324.1,38l0-.14c.06-.29.12-.58.18-.84l0-.15A12.25,12.25,0,0,1,325,35l3.55-12.63a19.82,19.82,0,0,0,.63-2.78c.42-6.63-1.57-8.73-5.15-10.12l-.29-.1c-5.5-1.94-20.57-2.91-23.58-3.08l-1.92-.13C295.7,6,290.77,5.74,286,5.74a46.52,46.52,0,0,0-9.9.71c-3.71.92-5.94,2.75-6.35,9.32a17.23,17.23,0,0,0,.27,2.93L272,31.46l0,.22a12.15,12.15,0,0,1,.4,2l.1,1.09a13.2,13.2,0,0,1,.1,2l0,.29c-.1,1.16-.57,2.53-3.28,3.78a11.79,11.79,0,0,1-2.24.66l-4.18,1a13.77,13.77,0,0,1-2.58.27l-.48,0a4,4,0,0,1-1-.2l-.23-.07c-2.18-.77-3.07-2.42-4-4.49a15.84,15.84,0,0,1-.83-2.81l-4.47-14-.08-.29a12,12,0,0,0-.94-2.31A7.94,7.94,0,0,0,244,15.23a9.19,9.19,0,0,0-2.46-.5,9,9,0,0,0-3.07.32c-7.19,2.1-13.22,4.77-21.52,9.49-7.07,4.05-14.19,8.4-18.33,12.88a10.81,10.81,0,0,0-3.11,6.42,9.35,9.35,0,0,0,1.68,5.91,16.12,16.12,0,0,0,2.2,2.38l9.44,10,.11.13a11.42,11.42,0,0,1,1.87,2.86c.74,2.11,1,3.9-.26,5.74a6.88,6.88,0,0,1-1.42,1.37l-4.93,4.89a6.53,6.53,0,0,1-2.8,1.51,3.59,3.59,0,0,1-1.58-.19,8,8,0,0,1-2.5-1.68c-.18-.15-.36-.29-.57-.48-4-3.25-9.45-7.72-11.66-9.54L184,65.92h0a21.66,21.66,0,0,0-3.34-2.22,11.24,11.24,0,0,0-1.54-.67,6.78,6.78,0,0,0-1.86-.41c-2.26-.16-3.84,1.14-5.2,2.58-4.95,5.25-7.48,9.79-11,16-.4.7-.8,1.39-1.2,2.12-6.18,11-7.79,15.16-9.49,22.22a16.78,16.78,0,0,0-.41,2.83,8,8,0,0,0,3.54,7.48A11.39,11.39,0,0,0,156,117L172,122s.34.1.77.25a8.61,8.61,0,0,1,1.56.68c1.9,1.16,3.1,2.3,3.28,4.35a9.69,9.69,0,0,1-.24,2.23l-.84,6.06,0,.14a8.14,8.14,0,0,1-1.05,2.3c-1.25,1.66-2.82,1.95-5,2.21a11.73,11.73,0,0,1-1.32,0l-.31,0c-.69,0-1.32-.14-1.62-.18l-13.29-1.53-.64-.05-1.08-.07c-.89-.05-1.7-.06-2.34,0-5.88.39-7,3.93-7.21,7.36l-.07,1c0,.13,0,.27,0,.4l0,.44c0,.94-.09,1.84-.16,2.76l0,.77c-.07.69-.11,1.36-.15,2,0,.44-.07.89-.1,1.33l-.18,2.91c-.19,3.28-.22,6-.11,9.07.37,11.29,1.28,19.36,4.87,27.18a5.54,5.54,0,0,0,3.32,3,9,9,0,0,0,2.15.44l.42,0a25.85,25.85,0,0,0,4.88-.37,15.6,15.6,0,0,0,2.86-.89l11.23-3.61.17-.07a11.63,11.63,0,0,1,2.14-.74,11.21,11.21,0,0,1,2.15-.25,3.17,3.17,0,0,1,.45,0,4,4,0,0,1,1.15.24,4.75,4.75,0,0,1,1.48.88c2.15,1.88,3.63,6.57,4.16,9.05l.08.27a7,7,0,0,1,.44,1.67l0,.88v0a6.54,6.54,0,0,1-2.43,3.9,12.14,12.14,0,0,1-3.14,1.83l-12.3,6-3.54,1.93a6.55,6.55,0,0,0-3.69,5.44,12.33,12.33,0,0,0,2.16,7c.9,1.45,1.64,2.75,2.34,4l.73,1.26a91,91,0,0,0,5.48,8.83c5.74,8,10.78,14.18,18.11,20a6.7,6.7,0,0,0,2.11,1.2,6.82,6.82,0,0,0,1.83.38,9.78,9.78,0,0,0,5.93-1.85,13.85,13.85,0,0,0,1.85-1.61l11.69-13.74.12-.14a7.5,7.5,0,0,1,1.54-1.68,4.71,4.71,0,0,1,3.12-.86l.81.09a3.93,3.93,0,0,1,.8.19,11.37,11.37,0,0,1,3.35,2.15l4.34,3.4.13.11a7.68,7.68,0,0,1,1.31,1.62c1.15,2.19.47,4.09-.39,6a10.93,10.93,0,0,1-.89,1.55l-7.15,11-.12.19a14.07,14.07,0,0,0-1.39,2.26,15.84,15.84,0,0,0-1.6,5.66,7,7,0,0,0,3.43,6.73c7.35,4.74,18.25,9,20.56,9.84l.49.17c.29.07.81.24,1.54.48a185.36,185.36,0,0,0,19.34,5.25,26,26,0,0,0,3.15.44c.47,0,.91.06,1.33.06,4.32,0,6.65-2,8-6.85a8.26,8.26,0,0,0,.26-1.88l.05-.64c0-.32,0-.58,0-.8l1.62-13.61v-.23c0-.2,0-.57,0-.87a9.88,9.88,0,0,1,.16-1.15,6.08,6.08,0,0,1,3.27-4.62,6.77,6.77,0,0,1,3.19-.62l.94,0,.47,0,.63.07.37,0h1.08l.55,0a10.54,10.54,0,0,1,2.71.51,4.55,4.55,0,0,1,1.21.61,6.2,6.2,0,0,1,2.66,5,5.33,5.33,0,0,1,0,.89l0,.47c0,.11,0,.22,0,.31s0,.35-.05.53l-.11,13.61v.1l0,.25v.05a3.25,3.25,0,0,0,0,.33l0,.59a9.32,9.32,0,0,0,0,2.18c.62,4,2.14,6.28,4.9,7.25a10.41,10.41,0,0,0,2.93.58l.61.05,1,0c.65,0,1.35,0,2.14-.07a184.1,184.1,0,0,0,19.84-2.81l1.67-.3c1.95-.35,13.94-3.4,22-7.28a7,7,0,0,0,4.24-6.24,16,16,0,0,0-.87-5.86,15.49,15.49,0,0,0-1.19-2.52l-5.69-11.71a14.59,14.59,0,0,1-.77-1.83,9,9,0,0,1-.57-3.44,5.07,5.07,0,0,1,1-2.55,7.6,7.6,0,0,1,1.54-1.47l4.79-2.87.12-.08a8.87,8.87,0,0,1,4.27-1.74h.22l.55,0a5.49,5.49,0,0,1,1.47.28,4.86,4.86,0,0,1,1.59.95,7.24,7.24,0,0,1,1.34,1.87L368.71,273a13.48,13.48,0,0,0,1.66,1.88,10.79,10.79,0,0,0,3.54,2.13,7.64,7.64,0,0,0,2.11.44,7,7,0,0,0,4.12-1.06c8.12-5,14-10.68,20.43-17.67a93.09,93.09,0,0,0,6.56-8.06c1.12-1.48,2.28-3,3.74-4.83,2.22-2.83,3.23-5.57,2.92-7.91a6.75,6.75,0,0,0-3-4.58l-3.29-2.4-11.32-7.41-.11-.07a12.8,12.8,0,0,1-2.87-2.18c-1.3-1.55-2.08-2.85-1.92-4.61a1.86,1.86,0,0,1,0-.26l0-.2a6.12,6.12,0,0,1,.64-1.62l.12-.28c.82-2.37,2.84-6.82,5.24-8.46a4.28,4.28,0,0,1,3.07-.76,11.12,11.12,0,0,1,2,.43l.26.09a11.91,11.91,0,0,1,2,1l10.83,5.07.08,0a19.8,19.8,0,0,0,2.46,1.13l.3.11a22.72,22.72,0,0,0,4.74,1l.82,0a5.89,5.89,0,0,0,5.48-2.78c4.5-7.23,6.42-15.13,8.22-26.34.48-3.12.78-5.81,1-9l.15-2.28.23-4q0-.39,0-.78l.08-1.05c0-.54.07-1.1.12-1.69l.11-1.48c.21-3.3-.19-6.56-4.48-8.07ZM261,214.63l2.6-1.34a59.54,59.54,0,0,1,26.9-6.31h.28a59.15,59.15,0,0,1,16.08,2.11A54.76,54.76,0,0,1,317,213l4.35,2.2-4.45,2A65.76,65.76,0,0,1,290.1,223h-.44a61.8,61.8,0,0,1-16.75-2.29c-.51-.14-1-.3-1.52-.45A69.83,69.83,0,0,1,261,214.63Zm17.75-96.12h0Zm75.21,37.56a64.35,64.35,0,0,1-17.52,44.31c-5-4-11.81-7.27-19.67-9.45a97.92,97.92,0,0,0-26.14-3.3h-.53c-18.53.1-34.86,4.64-45.1,12.48a71.74,71.74,0,0,1-15.93-45.25,72.61,72.61,0,0,1,2.09-17.31l27.29-.09a4.31,4.31,0,0,1,4.36,4.19l-8.09,34.21v.27a7.68,7.68,0,0,0,5.54,7,7.78,7.78,0,0,0,2,.26h0l8.48,0a6.58,6.58,0,0,0,.63.56l49.91.22s3.8,0,5.58-3.12.89-7.15.89-7.15-6-26.81-7.36-30.83,1.12-2.68,1.12-2.68l4.9.45s17.42,0,25.69-.15a67,67,0,0,1,1.85,15.43ZM289.85,89.84h.3a66.07,66.07,0,0,1,49.66,22.52l3.35,3.82-42.21.25c-4.34,0-7.52,3.28-7.72,7.87l0,.29L301.52,157v.26a6.51,6.51,0,0,1-1.9,4.54,6.86,6.86,0,0,1-4.77,2l-9.67.05a6.87,6.87,0,0,1-1.74-.23,6.62,6.62,0,0,1-4.93-6.27v-.3l7.95-32.43v-.29c-.2-3.72-2.34-6.6-5.58-7.5a8.06,8.06,0,0,0-2.14-.29l-38.78.14a71.27,71.27,0,0,1,13.38-15.76,66.84,66.84,0,0,1,36.52-11.09Zm8.67-22.93A84.46,84.46,0,0,0,272,71.16a87.13,87.13,0,0,0,18,172.39h.46a87.53,87.53,0,0,0,11.49-.83c46-1.85,82.85-40.54,82.85-87.86,0-49.53-46.39-88-86.3-88Z"/></g><g class="cls-5"><path id="Fill-4" class="cls-6" d="M240.18,277.26l2.76-.55L256.72,274v0l3.8-13.35,0-.11,0-.16,0-.17v-.05l0-.15v-.1l0-.17,0-.11,0-.21,0-.16v-.05l0-.1.08-.21,0-.07h0l.05-.1.09-.19,0,0,0-.06.09-.21,0,0,0-.06.06-.17.08-.16v-.06l.11-.31.06-.17.06-.22.08-.24,0-.16.07-.18,0-.2.06-.15.06-.13.09-.21,0-.1,0,0,.05-.11,0,0,.07-.07.08-.11.05,0,0,0,.11,0,.08,0,.07,0,.22,0,.11,0h.44l.23,0,.32,0,.41.06.22,0,.5.12,1,.22,1.21.25,1.21.25,1.16.21,1.23.2,1.25.21,1.27.19,1.29.17,1.35.16,1.34.14,1.42.13,1.4.11,1.45.1,1.46.08,1.4.09,1.47.08,1.44.07,1.42.06,1.4,0H293l1.31,0,1.26,0,1.3,0,1.17-.07,1.25-.09,1.15-.1,1.16-.12.45,0h.32l.4,0,.28,0h.22l.3,0,.17,0,.12,0,.17.07.1,0h0l.1,0,.05,0,0,0,.05.07.08.11v0l0,0,.06.15.05.1-.05-.08.08.22.06.2,0-.11,0,.15,0,.17.05.2,0,.16,0,.19.06.24,0,.23,0,.1v.09l.06.31h0l0,.06,0,.15,0,.16v0l0,.07.06.23,0,.11.06.19,0,.08v.17l0,.1v.13l0,.14,0,.13,0,.22v.18l0,.19v.44l0,.21.11.75,3.12-.62,11.86-2.37-.47-1.68,0-.1-.06-.18,0-.07,0,0,0-.09,0-.13,0-.11-.07-.21,0-.1v-.07l-.08-.3,0-.1v0l-.05-.19h0l-.08-.67-.07-.56,0-.52,0-.48v-.78l.05-.26,0-.17,0,0,0-.13,0-.08,0-.07.08-.1,0,0,.05,0,.08-.11,0,0,.13-.09.13-.09.16-.11.2-.09.26-.11.33-.14.88-.3,1-.35L324,252l1-.36,1-.37.94-.38,1-.39.95-.41,1-.44,1-.45,1-.45,1-.49,1-.5,1-.54,1-.53,1-.58,1.11-.6,1.12-.63.5-.3.57-.34.55-.34.54-.33.54-.35.54-.35.51-.32.59-.41.53-.34.53-.37.53-.39.47-.3,0,0,0,0,.54-.4.47-.32.53-.38.48-.34.5-.36.45-.35.47-.35.44-.32.41-.31.41-.33.41-.3.4-.3.35-.28.33-.26.34-.24.27-.22,0,0,0,0,.29-.23.19-.16.28-.22.18-.14.11-.1.23-.18.11-.07.25-.19.16-.1.26-.16.17-.06.12-.06.13,0,.17,0,.15,0h.11l.21,0,.14,0,.06,0,.26.1.12.06.16.09.28.19-.07,0,.26.18.28.23.25.23.28.28.3.33.15.16.11.1,0,.07h0l0,0,.14.14.14.16.18.19.14.14.17.17.15.16.16.15,0,0,.06,0,.11.12.08.09.11.1.1.12,0,0,.08.06.1.1h0l.05.06h0l10.26,11.28,0,0,.06.08.19.17.13.12.09.09.11.12.05,0,.07.07.11.11.12.09,0,0,.05,0,.11.1.17.13v0l.07,0,.13.12,0,0,.05,0,.17.12,0,0h0l.14.11.48.29,0,0,.05,0,.31.2h0l0,0,.36.19.07,0,.09,0,.39.17,0,0,.09,0,.37.15.11,0,.1,0h0l.28.09h.06l.08,0,.4.11.08,0,.14,0,.34.06h0l.12,0h.12l.4,0h.63l.05,0h.12l.39,0h.23l.48-.08.07,0,.05,0,.49-.1h0l.07,0,.45-.13h.07l.11-.06.34-.12.07,0,.11,0,.35-.16.07,0,.07,0,.05,0,.34-.16,0,0,.05,0,.07,0,.35-.23.09,0,.11-.1.29-.23.06,0,.05,0,0-.06.27-.24.09-.07.05,0,0-.05.26-.29.06-.06.09-.1.24-.3,0-.06.08-.13.24-.34,0,0,0-.05.24-.39.05-.06,0-.07.19-.42,0,0,.05-.12.14-.35,0-.07.06-.13.13-.37v-.11l0-.05v-.09l.08-.35,0-.05v-.09l0-.09,0-.39,0-.08v-.16l0-.36v-.73l0-.13,0-.25v-.17l-.05-.36,0-.08,0-.14-.09-.38,0,0,0-.11-.1-.32,0-.06,0-.08-.12-.34,0-.05,0-.12-.16-.35v0l0-.06-.16-.34,0,0,0-.05-.21-.4,0,0,0,0-.15-.27v0l0-.08-.23-.35-.21-.34-.26-.41,0,0,0,0-.12-.16-.14-.19v0l-.06-.06-.11-.14,0,0-.05-.06-.12-.13-.07-.08-.24-.29-.07-.06-.1-.11,0,0-.06-.07-.16-.16-.12-.13.08.1,0,0-.06-.06-.07-.08,0,0-.07,0-.08-.08,0,0,0,0-.07-.07h0l0-.05-12.29-10.36-.06-.07v0l-.07-.05-.08-.08,0,0-.06,0-.11-.11-.08-.09-.12-.12-.11-.08-.08-.09-.09-.09,0-.06-.1-.11-.23-.27v0l-.05-.05-.24-.25,0,0,0,0-.17-.18-.16-.16,0,0,0,0-.3-.29-.23-.22-.16-.16-.18-.19-.15-.16-.1-.1-.06-.07.07-.1.08-.15.13-.17.14-.16v0l0,0,.18-.22.18-.24.22-.29.23-.33.25-.34.27-.33.29-.4.3-.4.32-.42.34-.47.67-.94.39-.52.35-.5.39-.55.38-.53.39-.58.39-.57.41-.6.4-.6.4-.63.39-.59.4-.6.42-.68.4-.61.4-.66.39-.65.39-.66.39-.67.38-.66.35-.65.37-.69.34-.66.34-.67.42-.81.4-.82.37-.77.37-.76.35-.74.33-.72.34-.73.3-.68.33-.76.29-.69.28-.68.3-.78.28-.79.21-.61.3-.87.22-.72.25-.82.23-.8.22-.79.21-.86.24-.89.21-.89.08-.31,0-.1.11-.26,0-.05.07-.13h0l0,0,0,0,.12,0h.13l.15,0h.49l.23,0,.27,0,.27.05.24,0,.3.06.33.07.31.07.28.08.34.09.38.1.34.1-.07,0,.11,0,.24.07h0l.07,0,.09,0,.17,0,.25.07H390l.14,0,.2.06.24.06.25,0,.18.05.23.06.19.05.24.06.21,0,.16,0,.16,0,.21,0,.11,0,.07,0,12.83,3.32.11,0h0l.07,0,.13,0,.12,0,.08,0,.37.08h.09l.15,0,.14,0h.11l.24,0h.05l.24.05h.1l.23,0,.3,0h1.23l.26,0h.09l.29,0,.14,0,.14,0,.28-.09h.07l.12,0,.13,0,.24-.11.09,0,.07,0,.11,0,.25-.15.12-.08.05,0,.07,0,.21-.17.07,0,.1-.09.21-.18.05,0,.05-.05.05-.05.24-.23,0,0,.11-.09.21-.26.05,0,.08-.1.15-.22,0,0,0-.06.2-.3,0,0,0-.07.18-.28v0l.05-.08.15-.27v0l0,0,.16-.31v-.05l0-.08.16-.34.12-.28,0,0,0-.08.15-.43,0,0,0-.09.09-.28v0l0-.06.13-.42v-.09l0-.26,0,0,0-.09.09-.35h0v-.07l.05-.32,0-.05,0-.06.06-.43.06-.4v-.13l0-.34v0l0-.06V182l0-.07v-.38l0-.11v-.33l0-.12-.05-.35-.05-.2,0-.11,0-.11v-.09l-.05-.14-.1-.32,0-.06,0-.1-.09-.23-.06-.14-.05-.1,0-.09-.14-.26,0,0,0,0,0-.07,0,0,0,0-.13-.21,0,0,0,0-.06-.1-.07-.07,0,0-.19-.22-.06-.07-.06,0-.06-.09-.05,0-.05,0-.18-.18-.06,0-.07,0-.09-.07,0,0-.06,0-.26-.19-.11-.07-.13-.06-.27-.14-.21-.09h0l-.06,0-.24-.11h0l-.08,0-.21-.07,0,0h0l-.32-.12h-.08l-.15,0h0l0,0-.16,0h0l-.06,0-.35-.09-.27-.06-.22-.05-.22,0,0,0h-.12l-.15,0-.19,0H409l0,0h-.16l-.16,0-.19,0h-.2l.09,0L394.07,173H394l-.06,0-.13,0-.19,0-.16,0-.24,0-.21,0-.16,0-.23,0-.25-.06h-.07l-.16,0-.22,0-.21,0-.19,0-.16,0-.32-.06-.28-.06-.37-.09-.16,0-.3-.11-.24-.08-.29-.11-.15-.08-.23-.13-.14-.08-.07,0-.24-.19-.08-.07-.08-.07-.16-.18v0l-.06-.1-.11-.22,0,.1-.08-.15,0-.12-.05-.11,0-.21,0-.24v-.77l0-.4.13-.86.11-.92.12-.94.1-.88.1-.9.09-.93.08-.9.09-.87.06-.89.05-.94.05-.92,0-.92v-3.88l0-1-.05-1-.06-1.11-.07-1.08-.07-.91-.07-.86-.07-.83-.1-.84-.08-.77-.08-.76-.09-.71-.11-.84-.1-.65-.12-.82-.13-.72-.12-.66-.17-.84-.15-.69-.17-.74-.18-.78-.2-.73-.19-.78-.24-.81-.23-.83-.25-.82-.25-.83-.11-.37-.08-.33-.06-.33,0-.23,0-.25,0-.22v-.1l0-.27.06-.21.05-.11.05-.12.08-.12.15-.2,0,0,.19-.19.18-.2.16-.13.23-.17.2-.16.3-.19.27-.16.1-.06h0l.08,0,.08,0,.22-.07.06,0,.12,0,.07,0,.12-.05h.06l16.3-5.5.05,0,.12,0,.11,0,.06,0h0l.08,0,.11,0,.08,0,.11,0,.21-.08.21-.08h.06l.2-.09.23-.09.24-.1.26-.1.28-.13.25-.12.26-.11.24-.08,0,0v0l.27-.11.18-.09.27-.12.06,0,.11-.07.14-.07-.05,0,.25-.14h0l.06,0,.09,0,.23-.13.07,0,.22-.16h0l0,0,.19-.12.08-.06.08-.07.25-.21.06-.07.06-.06.06-.07.25-.26.1-.1.1-.13.05-.07-.05.06.15-.24.07-.09.06-.08,0-.07.16-.27h0l.06-.11,0-.11.17-.33v0l.05-.1.11-.29,0,0,0-.11,0-.07.1-.38v-.07l0-.11.05-.25v0l0-.13v-.13l.06-.44,0,0v-.06l.05-.46v-.41l0-.08,0-.14v-.36l0-.12-.05-.32v0l0-.11-.07-.42v0l0-.11-.07-.32v0l0-.09-.11-.36v0l0-.1-.13-.4,0-.08-.05-.11-.17-.43,0,0,0-.08-.2-.41,0,0-.07-.1-.21-.41,0,0-.05-.09-.27-.43,0-.05-.09-.1-.32-.45v-.06l-.06,0-.35-.46,0,0-.05,0-.23-.24,0-.06-.07-.07-.07-.08-.21-.19h0l0,0-.06,0,0,0-.06,0-.23-.17-.05,0-.05,0-.06,0-.23-.16-.09-.06,0,0-.08,0,0,0h0l-.21-.1-.1,0-.07,0-.07,0-.23-.08-.06,0,0,0-.1,0-.05,0-.1,0-.21,0h0l-.09,0h-.08l-.27,0h-.18l-.2,0H404.8l-.2,0-.3,0h-.07l-.27,0-.26,0-.18,0h0l-.06,0h-.07l0,0h-.05l-.07,0-.29.07-.26.06-.14.06h-.07l-.1,0-.22.1-.24.07h-.07l-.21.07-.27.11-.25.1-.26.1-.23.08-.28.1-.23.11-.23.1-.2.08-.18.08-.2.08-.13,0-.1,0,.18,0-.13,0-.18.07,0,0-15.57,6.44-.09,0-.06,0H383l0,0-.14,0h-.06l-.16,0,.07,0-.16.07-.2.07-.21.07-.21.07-.21.08-.21.07-.27.1-.19.08-.21.08-.2.08,0,0h0l-.07,0-.07,0h-.12l-.15,0-.06,0-.1-.06h0l-.1-.08-.12-.11-.09-.07-.11-.15h0l-.13-.18-.07-.15-.39-.76-.43-.82-.8-1.53-.39-.73-.37-.7-.41-.72-.38-.67-.36-.65-.39-.68-.36-.63-.39-.63-.37-.63-.38-.6-.37-.59-.44-.66-.38-.61-.43-.63-.42-.62-.44-.61-.41-.6-.52-.71-.47-.63-.5-.68-.51-.68-.54-.7-.56-.72-.77-1-.72-.92-.75-.92-.73-.89-.71-.84-.72-.85-.72-.82-.7-.79-.72-.8-.71-.76-.65-.67-.81-.81-.72-.72-.75-.72-.79-.73,0,0,0,0-.7-.63-.76-.67-.7-.6,0-.06v-.06l.09-.27.07-.17.11-.25.17-.33.16-.31,0,.08.21-.38.18-.31.2-.3.21-.32.24-.35,0-.08,0,0,.06,0,.13-.17.11-.13.06-.06,0,0v0l.07,0,.09-.11,0-.06.1-.09.06-.08.07,0,.14-.15L366.55,67h0l0-.05,0,0,.07-.07,0,0,.09-.08.14-.16.12-.14.18-.2.16-.17.15-.18,0,0,.06,0,.11-.16h0l0,0,.11-.17.14-.16.11-.16.06,0,.06-.11.13-.19v0l0,0,.12-.19.28-.48v0l0,0,.25-.44v0l0,0,.2-.37v0l.05-.09.18-.42,0,0,0-.1.16-.37,0-.07,0-.12.12-.39v-.06l0-.11.12-.46,0-.08v-.09l.08-.49,0-.09V60l0-.39v-.71l0-.39v-.14l0-.05v0l-.07-.37v-.07l0-.11-.1-.39v-.07l0-.07-.15-.42v0l0-.07-.15-.36,0-.06-.05-.08-.16-.38,0,0,0-.07-.13-.25v0l-.05-.08L369,54.9l0-.06-.06-.1-.2-.28,0-.05-.06-.07-.21-.29,0,0v0l-.27-.33,0,0-.08-.1-.28-.29,0,0-.08-.1-.26-.24-.05,0,0,0,0,0-.31-.25-.05,0-.08-.08-.35-.24-.1-.08-.12,0-.05,0-.18-.12-.08,0-.08,0-.08,0-.35-.17-.09,0-.11-.05-.36-.14h-.06l-.09,0h0l0,0-.37-.12h-.06l-.07,0-.07,0-.49-.09-.09,0h-.08l-.49-.06h-.8l-.36,0h-.08l-.14,0-.37.05H361l-.07,0-.37.07-.09,0h-.14l-.34.1-.06,0-.12,0-.35.14-.11,0-.13.06,0,0-.3.14-.05,0-.1.06-.27.13,0,0-.11.05-.36.22-.1.06-.09.07,0,0-.24.17-.06,0-.05.06-.35.28-.38.31,0,.05-.05,0-.2.2,0,0-.07.07-.12.12,0,0,0,0-.18.23,0,0-.06.09-.14.17-.11.15,0,0-.06.09-.17.23v0l0,0-.11.16-.15.19,0,0,0,0-.1.19-.13.21-.12.19-.1.19-.07.07-.07.15-.07.16v0h0L343.8,71.61l0,.06-.07.1,0,0-.12.14v0l0,0-.08.1-.1.1-.08.1v0l0,0-.09.1-.22.16-.12.11-.2.12-.14.06,0,0-.06,0h0l0,0H342l-.22-.07-.22,0-.24-.1-.32-.13-.3-.16-.39-.19-.39-.21-.45-.24-.47-.27-.77-.45-.74-.43-.75-.39-.68-.39-.73-.39-.65-.35-.72-.36-.63-.32-.68-.33-.63-.28-.7-.33-.65-.3-.77-.35-.61-.24-.62-.25-.77-.31-.71-.28-.7-.28-.79-.3-1.57-.56-.83-.31-.88-.31-.87-.31-.85-.28-.8-.27-.81-.26-.77-.24-.82-.27-.72-.19L316,62l-.67-.2-.84-.21-.78-.2-.7-.18-.74-.17-.74-.17-.8-.16-.79-.18-.8-.16-.81-.14-.84-.17-.87-.14-.88-.16-.91-.15-.3-.07-.24-.06-.29-.09-.14,0-.2-.1-.08,0h0l-.16-.14h0l-.06-.08,0-.07-.07-.14v0l-.05-.17,0-.19,0-.27,0-.23v-.37l0-.37v-.16l0-.22,0-.25,0-.27,0-.23,0-.25v-.28l0-.21,0-.24,0-.24,0-.23v-.21l0-.15V54l0-.18v-.24l0,0V53.5l1.42-15.65h0v0l0,0v-.27l0-.19v-.19l.05-.25v-.26l0-.28v-.27l0-.29,0-.48V34.14l0-.39,0-.07,0-.07-.05-.45V33l-.06-.34,0-.09-.05-.12-.08-.31,0-.09,0-.08,0-.1-.15-.32v-.09l-.05-.06v0l0,0-.14-.25,0-.07,0-.06-.05-.08,0,0,0,0-.16-.24,0-.05,0-.05-.05-.07-.05,0,0,0-.2-.24,0,0-.11-.1-.21-.21,0,0,0-.05-.27-.22-.06-.06-.07-.05-.32-.24-.05,0-.07,0-.22-.14,0,0-.09-.05-.09-.06-.24-.1-.11-.05-.23-.1-.07,0-.12,0-.25-.09-.05,0-.11,0-.24-.06,0,0h-.08l-.28-.06-.05,0h-.12l-.12,0-.37-.06h-.12l-.22,0h-.13l-.22,0h-.18l-.05,0h-.92l-.13,0-.18,0-.24,0-.21,0h-.06l-.21,0h-1.29l-.31,0h-.07l-.09,0-.28,0h-.06l-.13,0-.24,0-.07,0-.14,0-.19.05-.1,0h-.09l-.29.1-.11.06-.14.05-.25.15-.06,0-.05,0-.19.11h0l-.12.07-.11.08-.27.18,0,0-.07.06-.24.18-.09.07-.07.1-.21.15-.07.06-.06.07-.06.06-.23.25-.07.09-.06.07,0,.08-.18.22,0,0,0,0,0,.09,0,0v.05l-.15.24,0,0L290,31l-.07.1-.13.33-.05.09,0,.09-.12.37,0,.07,0,.08-.1.34,0,.07v.12l-.08.37v.08l0,.26v0l0,.07,0,.41,0,0,0,0-.05.36,0,.42,0,.55v.28l0,.29v.79l0,.21-.53,15.69v1.48l0,.26v.77l0,.25v.21l0,.27v.25l0,.17,0,.35,0,.34-.05.29,0,.16-.08.21-.07.2,0,0L288,58v0l0,0,0,0-.09.06h0l-.18.09,0,0-.18.06-.15,0-.29,0-.27,0-.33,0-.88,0-.89,0-.88.06-.86,0-.84,0-.81.07-.78.06-.8.07-.77.08-.78.08-.75.09-.74.09-.83.12-.72.1-.77.12-.69.11-.9.16-.8.14-.81.17-.82.16-.91.19-.88.19-.9.2-.87.19-.73.17-.9.21-.78.18-.79.19-.72.19-.73.18-.75.21-.69.21-.68.19-.72.22-.67.21-.72.23-.7.24-.71.26-.7.25-.72.28-.76.28-.74.3-.79.34-.79.32-.82.34-.54.22-.47.19-.47.18-.31.12-.39.12-.31.08-.27.07-.16,0h-.61l-.13-.08-.13-.09-.13-.11-.13-.11-.18-.2,0,0-.06-.07-.05-.1-.07-.07,0-.1,0-.07,0-.07v0l0,0,0-.07,0-.06,0-.08h0l-.06-.09-8.5-16.3v0l0-.07-.08-.18v0l0-.06,0-.1,0-.14,0-.05,0-.09-.1-.17-.06-.16-.09-.23,0,0,0-.09-.09-.18-.1-.19-.18-.34,0,0,0-.08,0-.07-.22-.35v0l-.07-.07-.09-.14v0l0-.05-.15-.23L236,46l-.17-.21h0l0,0-.28-.31,0,0,0-.05-.28-.3-.06,0-.09-.08-.3-.27h0l0,0-.3-.27-.11-.09-.14-.08-.21-.15,0,0-.07-.07-.26-.15-.13-.1-.14-.07-.35-.17,0,0-.1-.06-.34-.13-.06,0-.06,0-.06,0-.38-.13-.07,0-.1,0-.39-.11-.07,0h-.05l-.09,0-.42-.05-.08,0h-.08l-.47,0h-.14l-.44,0h-.17l-.06,0-.41,0h-.23l-.41.07h-.08l-.08,0-.07,0-.4.09-.07,0-.13.06-.4.11-.09,0-.08,0-.07,0-.23.1-.05,0-.11,0-.09,0-.37.2-.06,0-.09.07-.29.18-.1.06,0,0,0,0-.3.23,0,0-.09.05-.3.25,0,0-.07.06-.3.27,0,0-.09.08-.24.26,0,0-.06.06-.24.29,0,.06-.07.09-.19.27,0,0,0,.07-.23.32,0,0,0,.09-.2.35-.23.4,0,.06,0,.06-.18.39,0,.09-.05.14-.15.38,0,.05v.08l0,.06-.11.4v.07l0,.11-.1.42V50l-.05.44v.79l0,.43v.19l.06.42v.07l0,.12.08.39,0,.05,0,.09.1.39v0l0,.11.16.46h0l0,.06.11.33,0,0v.08l.19.42.2.47v0l0,0,.09.2v0l0,0,.14.27.07.11,0,0,0,.09.11.18.18.3h0l0,0,.08.14.1.16,0,0,0,.05.12.18.13.18.09.14.12.15,0,0,0,.05.07.1.07.08,0,.06L232,70.25l.06.1.08.14.08.08.05.06,0,0,0,0,.06.07.09.14.1.13.08.14.09.11.07.11.06.1v0l.07.13.17.34.2.38.13.31.17.35.12.32.13.34.08.25.09.26.07.31,0,.19v.12h0l-.73.49-.86.59-.79.54-.89.65-.82.6-.83.63-.82.66-.8.62v0l-.05,0-.74.64-.82.69-.86.75-.75.68-.84.75-.81.75-.83.8-.85.82-.84.85-.87.85-.66.65-.61.63-.59.62-.58.58-.55.6-.55.58-.53.56-.5.58-.51.56-.48.56-.47.54-.51.61-.43.52-.46.58-.46.56-.45.6-.46.59-.44.59-.47.63-.43.61-.49.65-.46.68-.48.66-.5.72-.5.72-.52.74-.5.75-.11.14-.1.12,0,0-.13.11-.12.1-.12.08-.09.05-.06,0-.06,0-.11,0-.11,0h-.06l-.05,0-.06,0-.15-.08-.26-.14-.22-.11,0,0,0,0-.21-.1-.16-.08-.22-.11-.21-.11-.21-.1-.24-.11-.13-.07-.21-.1-.1,0-.16-.09-.1,0h0l-14.64-8.33h0l-.07-.06-.12-.06-.14-.09-.06,0-.14-.08-.06,0-.08,0-.12-.07-.16-.08-.17-.12,0,0,0,0-.2-.11-.19-.1-.27-.15-.23-.13-.24-.13-.27-.13-.26-.13,0,0-.06,0-.19-.1-.16-.08,0,0h0l-.21-.1h0l-.06,0-.17-.07-.27-.12-.05,0-.07,0-.15,0,0,0h0l-.15-.05-.35-.1-.23-.07h-.11l-.11,0-.13,0-.3,0,0,0h-.06l-.19,0H181l-.11,0-.25,0h0l-.11,0h-.38l-.08,0h-.47l0,0h-.06l-.24,0h-.11l-.09,0-.07,0-.17,0-.11,0-.1,0-.09,0-.26.1-.13,0-.12.06-.05,0-.16.08h-.08l-.1.06-.05,0-.06,0-.24.15,0,0-.05,0-.06,0-.28.2-.09,0-.07.06-.27.24-.06,0,0,0-.43.42-.1.1-.07.11-.25.27,0,0-.08.1-.33.4,0,0,0,.08-.27.36,0,.06-.08.08-.23.4,0,0-.07.08-.21.4,0,0,0,.1-.21.4,0,0,0,.1-.15.35,0,0,0,.09-.12.32,0,.06,0,.1-.1.39,0,0,0,.12-.07.28v.16l-.07.32,0,.1v.09l0,.33v.6l0,.1v.43l0,.13v.12l0,0,0,.25V102l.06.41,0,.13,0,.12,0,0,0,.12v.14l.06.16.11.35,0,.08,0,.07,0,.09.14.34,0,.08.08.14.12.21h0l.07.14.07.13.21.29.07.06.07.1.24.28.06.07.1.09.19.15v0l.07,0,.1.08v0l.07,0,.13.1,0,0,0,0,.18.11v0l0,0,.25.16,0,0,.06,0,.12.09.23.13,0,0,0,0,.19.12.23.15.25.14.27.16.23.13.23.14.25.15.23.13.23.12.23.14.2.11.21.11.16.09.13.07.12.06-.05,0,.07,0,.14.07.06,0,.11.05,15.48,7.46,0,0h0l.13.07.14.07h0l.06,0,.16.09.08,0,.15.08h0l.06,0,.05,0-.05-.06.27.23.24.23.2.18.21.21.17.19.16.19.09.13.09.15.1.19,0,.08.06.18v.07l.05.19v.32l0,.07,0,.3,0,.17-.07.22-.09.33-.12.3-.17.42-.36.75-.33.79-.33.8-.3.73-.35.82-.25.68-.27.68-.25.69-.27.76-.22.67-.24.74-.22.76-.21.73-.19.68-.2.75-.18.71-.18.77-.19.77-.17.79-.17.81-.19.86-.18.88-.21,1.1-.18,1-.19,1-.14.88-.15,1.12-.13,1-.11.93-.1.94-.08.94-.08.91-.06.9-.07,1.16,0,1.17,0,1.16v3.59l0,1.21v.6l0,.3,0,.19-.07.2-.05.23-.05.07-.08.16,0,.08-.09.13-.09.1-.06,0-.15.14-.07.05-.11.09-.21.12-.11.07-.2.07-.23.09-.17.06-.27.07-.25.06-.27,0-.25,0-.33,0-.29,0h-1.05l-.31,0h-.83l-.28,0h-.36l-.12,0h-.1l-.08,0-.12,0-14.24.66h-.73l-.11,0h-.55l-.22,0h-.09l-.27,0-.33,0-.27,0h-.07l-.34,0h0l0,0-.31,0h0l-.07,0-.27,0,0,0-.08,0-.23,0h0l-.07,0-.23.07H165l-.08,0-.28.08,0,0-.12,0-.28.11,0,0-.06,0-.27.14h0l0,0-.25.13-.2.12-.25.14-.23.15-.06,0-.08.05-.14.12,0,0-.06,0-.17.12,0,.05-.09.06-.12.11,0,0-.09.07-.18.16v0l0,0-.12.12-.05.05-.05.07-.1.09,0,0,0,0-.17.19v0l0,0-.21.25,0,0v0l-.18.21-.21.32-.06.06,0,0-.13.2-.06.09,0,.12-.06.1-.1.2-.05.15,0,.06,0,.06-.07.21,0,.07,0,.11-.05.25,0,.08,0,.14,0,.18v0l0,.11,0,.3v.08l0,.32V169l0,.24v.1l0,.39v.12l0,.32,0,.37,0,0v.08l.08.37v0l0,0,.06.31v0l0,.1.09.32,0,.06.05.1.09.23v0l0,0,0,.07v0l0,0,.12.28,0,0,.06.12.15.28.06.09,0,.09.19.28.06.09.07.08.25.29,0,0,.06.08.2.21,0,0,.09.1.21.19,0,0,.06.07.23.18.05.06.09.05,0,0,.22.15.06.05.1.06.13.08.05,0,.11.06.12.06.22.12.05,0,.12,0,.23.1,0,0h.09l.18.06.08,0,.11,0,.15,0,0,0h.06l.28.07h0l.1,0,.22,0,.24.05.25.05.21,0,.26.05.23,0h.14l.25,0,.31.05h.11l.24,0h2.25l.2,0h.38l.11,0h0l13.05-1.7h.23l.14,0,.23,0,.22,0,.18,0h.14l.28,0,.16,0,.34,0,.17,0,.29,0,.21,0,.21,0,.17,0,.27,0,.17,0,.09,0h.16l.44-.05.3-.06.33,0,.36,0,.32,0,.3,0,.32,0,.28,0,.27,0h.59l.18,0,.24,0h0l.16.05.06,0h.07l0,0,0,.06,0,.11v0l.06.24,0,.14.06.37.1.84.1.89.12,1,.13.79.12.75.15.94.32,1.56.15.72.19.78v.08l.12.57.24.82.21.77.21.73.22.75.22.74.25.77.27.82.27.77.57,1.68.52,1.43.3.83.28.71.58,1.44.29.7.31.67.32.74.29.66.34.71.31.66.33.69.32.67.32.64.31.63.35.67.32.61.32.59.29.59.33.59.3.57.29.54.31.53.26.5.27.48.52.91.22.39.25.45.2.34.19.33.19.32.18.3.12.24.12.2.13.21.08.17,0,.09h0l0,.05-.14.1-.14.13-.15.12-.13.1-.17.13-.2.14,0,0,0,0-.2.16-.16.12-.27.21-.21.19-.23.18-.05,0,0,0-.21.19-.06.05-.13.12-.14.13-.13.08-.13.11-.15.11-.07,0-.1.07-.1.08h0l0,0-.07,0-.06,0-13.41,8.75,0,0-.08,0-.09.07,0,0-.09.07-.11.09,0,0,0,.05-.15.12,0,0-.05,0-.08.07-.18.16-.06,0-.05.06-.2.18-.2.18.06,0-.07,0-.09.07-.09.1-.12.11,0,0,0,0-.15.15,0,0,0,0-.11.15-.35.39,0,0,0,0-.28.36v0l0,0-.24.34,0,0-.06.07-.25.37,0,0,0,.07-.24.39,0,.06-.06.09-.23.4,0,0,0,.1-.17.34,0,0,0,.1-.19.41,0,.1,0,0,0,.08-.14.4v0l0,.11-.13.46v.1l0,.08-.08.48v.18l0,.44V233l0,.39,0,.09v.09l0,.07,0,.39v.11l0,.06v.07l.07.38v.06l0,.12.1.42,0,.09,0,.1.17.44,0,0v0l.19.43,0,.07.07.12.16.32,0,.05,0,.1.21.34.06.09.06.09.05,0,.18.26,0,.07,0,0,0,.05,0,0,0,0,.27.3,0,0,.06.09.25.23.06.08.1.06.06.06.26.22,0,0,.09.07.09.05.34.24,0,0,.07,0,.32.21.07,0,.13.06.38.2.05,0h0l.43.2.07,0,.06,0,.42.16.08,0,.12,0,.41.13h.09l.08,0h.1l.38.07.06,0,.13,0,.4,0h.2l.43,0h.21l.31,0h.29l.41-.07h0l.09,0,.36-.08h.07l.11,0,.42-.1.06,0,.13,0,.37-.14h0l.07,0,.21-.08.11,0,.13-.06.43-.19h0l0,0,.41-.2.05,0,.07,0,.12-.07.21-.12h0l0,0,.19-.11,0,0,.07,0,.08,0,.12-.07,0,0,.1-.07.16-.11.12-.07.15-.1,0,0,.06,0,.07-.06.13-.1.1-.06.1-.07.11-.08,11.68-10,0,0,.13-.09,0,0,0,0,.16-.11,0,0,0,0,.15-.12.09-.07.11-.07.23-.17.17-.15.16-.12.19-.16.15-.12.2-.17.13-.11.19-.14.14-.14.1-.07.31-.27.35-.27.27-.21.24-.14.28-.16.24-.13.14,0,.25-.08.22-.07h.45l.14,0h0l.26.1-.08,0,.13,0,.19.1-.11-.06.23.15.17.14.21.17.22.22.13.12.1.1.12.14.23.22.19.19.22.22.26.29.27.25.3.31.33.31.3.29.36.36.35.34.36.36.39.37.38.38.45.42.41.38.43.41.44.41.45.4.48.45.44.41.49.43.47.43.49.43.49.43.5.42.49.41.49.43.51.42.5.4.46.37.53.41.5.36,1,.78,1,.72,1,.69,1,.69,1,.64.94.64.95.59.92.58.94.57.9.54.91.53.92.52.9.5.93.48.87.47.91.47.9.45.91.45-.05,0,.3.16.24.15.21.13.18.12.1.09.11.13.06.07.08.1,0,.07,0,.07,0,.17,0,.07v.09l0,.11v.5l0,.39-.07.41-.08.45-.1.46-.14.55-.12.53,0,.1,0,.14,0,.12,0,.12,0,.06-.11.19-.07.22-.05.11,0,.11-.07.13-.05.11,0,.05,0,0,0,0-.08.17-5.32,12.64,0,.06v0l0,0,0,.07-.05.1L241,268l-.12.19-.07.14-.06.18h0l-.09.2v0l0,.07-.06.11,0,0,0,.05-.11.3,0,.1,0,.07,0,0-.06.2v0l0,0-.11.44-.17.66v0l0,.07-.1.35-.12.67v.12l-.09.46v.07l0,.06,0,.53v.13l0,.35v1.05l0,.15.05.4,0,.06v.12l0,.19,0,0,0,.13,0,.13.1.36,0,.07,0,.13.12.35,0,.08V277l0,.07.07.17ZM581,348.86l-36.43,7.29a11.52,11.52,0,0,1-10.3-3.06l-5.44,1.05a11.77,11.77,0,0,1-1,1.92,11.59,11.59,0,0,1-7.36,4.92L514,362.26l-25.67,5.11-6.05,1.21a11.58,11.58,0,0,1-2,.23,11.62,11.62,0,0,1-4.64,2.09l-6.41,1.31c-9.51,2-20.6,4-31.85,4h0c-2.33,0-4.61-.1-6.78-.28-1.7-.14-3.35-.35-5-.6l-22.21,4.32a12.79,12.79,0,0,1-.78,1.4,11.56,11.56,0,0,1-7.36,4.93l-6.47,1.28-24.88,5-29.89,6L320.08,401a11.53,11.53,0,0,1-8.68-1.72,11,11,0,0,1-1.71-1.4l-7.28,1.42a12,12,0,0,1-1.05,2,11.55,11.55,0,0,1-7.34,4.92l-36.15,7.23a11.53,11.53,0,0,1-10.62-3.4l-8.44,1.64a11.07,11.07,0,0,1-1.2,2.38,11.57,11.57,0,0,1-7.35,4.92l-6.46,1.27L155.07,434l-6.44,1.3a11.81,11.81,0,0,1-2.77.21,11.79,11.79,0,0,1-2.54.82l-36.44,7.31a11.49,11.49,0,0,1-11.26-4.09l-4,.78a11.32,11.32,0,0,1-1.47,3.2,11.58,11.58,0,0,1-7.35,4.93l-38.21,7.62a11.73,11.73,0,0,1-2.27.23,11.56,11.56,0,0,1-11.16-8.64l-1.56-6c-.47-1.74-.91-3.63-1.3-5.57a138.06,138.06,0,0,1-2.46-25.45v-.18c0-.14,0-.27,0-.4v-.19c0-.09,0-.18,0-.26.08-1.42.16-2.59.24-3.69l.14-1.67a171,171,0,0,1,4.29-25.61l-1.14.23a11.54,11.54,0,0,1-13.59-9.07L8.89,335.22A11.56,11.56,0,0,1,18,321.62l6.46-1.29c4.73-.93,25.76-5.12,62.63-12.46L116.58,302a12,12,0,0,1,2.59-.22,12,12,0,0,1,2.71-.9l6.44-1.29c8.26-1.66,59.92-12,68.8-13.74l6.45-1.28a11.59,11.59,0,0,1,2.4-.22,11.85,11.85,0,0,1,2.41-.76l6.45-1.28,1.11-.22a6.84,6.84,0,0,1,0-1,14.24,14.24,0,0,1,1.41-5,14.88,14.88,0,0,1,1.29-2.05l0-.05,0-.05,7-10.8a15,15,0,0,0,1.16-2c1-2.15,1.87-4.69.33-7.67a9.55,9.55,0,0,0-1.77-2.18l-.06-.08-.08,0-4.38-3.42a13.06,13.06,0,0,0-3.9-2.44,6,6,0,0,0-1.2-.29c-.29,0-.61-.07-.93-.09a6.62,6.62,0,0,0-4.3,1.18,9.08,9.08,0,0,0-2,2.16L197,261.85a12.48,12.48,0,0,1-1.54,1.36,7.74,7.74,0,0,1-4.72,1.52,4.62,4.62,0,0,1-1.29-.26,4.9,4.9,0,0,1-1.53-.87c-7.16-5.72-12.06-11.72-17.69-19.59a89.91,89.91,0,0,1-5.35-8.61c-.94-1.63-1.88-3.3-3.1-5.28a10.33,10.33,0,0,1-1.85-5.81,4.62,4.62,0,0,1,2.69-3.85l3.49-1.91,12-5.89a14.09,14.09,0,0,0,3.73-2.2,8.41,8.41,0,0,0,3-5.19l0,0,0-.05,0-.38v-.07l0-.07,0-.09a2.16,2.16,0,0,0,0-.36,9,9,0,0,0-.54-2.34c-.28-1.27-1.75-7.41-4.78-10.07a6.64,6.64,0,0,0-2.09-1.25,6.22,6.22,0,0,0-1.62-.33,12,12,0,0,0-3.12.25,14,14,0,0,0-2.54.87l-11.12,3.58-.06,0-.07,0a16.59,16.59,0,0,1-2.5.79,23.19,23.19,0,0,1-4.46.35l-.38,0a6.64,6.64,0,0,1-1.62-.33,3.59,3.59,0,0,1-2.19-2c-3.44-7.46-4.32-15.3-4.68-26.32-.11-3-.07-5.66.11-8.84l.13-2.24c0-.63.07-1.27.14-1.92s.08-1.33.14-2l0-.87c.05-.87.1-1.77.15-2.73v-.33c0-.17,0-.36,0-.54l.06-.9c.26-3.35,1.18-5.24,5.39-5.52a16.87,16.87,0,0,1,2.08,0l1.07.05.49,0,13.11,1.5c.24,0,1,.15,1.88.22l.26,0a11.78,11.78,0,0,0,1.72,0c2.12-.25,4.52-.55,6.34-3a9.83,9.83,0,0,0,1.38-3l0-.14,0-.13.82-6a11.21,11.21,0,0,0,.28-2.79c-.26-3-2.17-4.58-4.19-5.82a10.73,10.73,0,0,0-1.94-.86l-.85-.28-15.43-4.74-.42-.14a8.19,8.19,0,0,1-1.9-.88,6.07,6.07,0,0,1-2.71-5.76,13,13,0,0,1,.37-2.48c1.63-6.77,3.18-10.85,9.24-21.61.4-.73.79-1.41,1.18-2.1,3.43-6.14,5.9-10.57,10.65-15.63,1.45-1.52,2.42-2,3.64-2a5.11,5.11,0,0,1,1.35.3,12,12,0,0,1,1.29.56,22.52,22.52,0,0,1,3,2s7.47,6.18,12.62,10.34l.56.47a9.49,9.49,0,0,0,3.08,2,5.46,5.46,0,0,0,2.43.28,8.4,8.4,0,0,0,3.88-2l.05,0,0,0,4.61-4.62a9.2,9.2,0,0,0,1.9-1.86c1.81-2.69,1.25-5.28.48-7.46a13.22,13.22,0,0,0-2.24-3.51l0,0,0,0-9.46-10.09-.06-.08-.08,0a12.34,12.34,0,0,1-1.87-2,7.47,7.47,0,0,1-1.37-4.65,8.84,8.84,0,0,1,2.6-5.23c4-4.35,11.25-8.73,17.79-12.46,8.15-4.64,14-7.24,21-9.29a6.94,6.94,0,0,1,2.38-.23,7.86,7.86,0,0,1,1.94.39,6,6,0,0,1,3.2,2.53,10.33,10.33,0,0,1,.77,2l0,0v0l4.43,13.79a17.61,17.61,0,0,0,1,3.2c1,2.32,2.23,4.51,5.12,5.52l.35.12a6.19,6.19,0,0,0,1.37.25l.3,0a15.35,15.35,0,0,0,3.4-.31l4.14-1a14,14,0,0,0,2.59-.78c2.77-1.29,4.17-3,4.39-5.36v-.31a14.62,14.62,0,0,0-.1-2.31c0-.33-.07-.7-.09-1.06a14,14,0,0,0-.47-2.34l-1.92-12.71a16.94,16.94,0,0,1-.26-2.44c.38-6,2.25-6.95,4.86-7.6,4.6-1.12,17.56-.49,21.43-.28l1.9.13c.19,0,17.31,1,23,3L322,13c2.52,1,4.28,2.12,3.9,8.14a17.26,17.26,0,0,1-.56,2.35L321.91,35.9a12.2,12.2,0,0,0-.75,2.34c-.06.28-.14.61-.2.92a15.41,15.41,0,0,0-.42,2.27c0,.14,0,.3,0,.43-.08,2.32,1.09,4.19,3.66,5.8a14.26,14.26,0,0,0,2.42,1.09l.1,0,3.92,1.47A16,16,0,0,0,334,51h.3a7.92,7.92,0,0,0,1.44-.07c3.23-.6,4.72-2.67,6.12-4.93a20.36,20.36,0,0,0,1.34-3l6.07-13.14a16,16,0,0,1,1.06-2,6.44,6.44,0,0,1,5.47-2.25,7,7,0,0,1,1.93.37,1.85,1.85,0,0,1,.4.17C364.75,29,370.28,32.34,377.83,38c6,4.51,12.66,9.77,16.08,14.56,2.58,3.61,2.58,7,0,10a13.17,13.17,0,0,1-2.11,1.74l-.09,0-.06.07L381,73.21l0,0,0,0a12.85,12.85,0,0,0-2.66,3.22,10.16,10.16,0,0,0-1.21,3.94,6.76,6.76,0,0,0,.75,3.49A9.57,9.57,0,0,0,379.52,86l4,5.14,0,0,0,0a9,9,0,0,0,3.23,2.38l.38.1c2.46.63,4.44-.68,5.73-1.55l.64-.42c5.6-3.49,13.73-8.64,13.82-8.7a21.14,21.14,0,0,1,3.24-1.64,7.43,7.43,0,0,1,2.74-.52,3,3,0,0,1,.87.15,5.73,5.73,0,0,1,2.49,2.26c4.1,5.62,6,10.35,8.69,16.89l.86,2.16C431,113.8,432,118,432.8,124.93c.46,4-.57,6.44-3.34,7.88a10.34,10.34,0,0,1-2.44.73l-15.91,2.79a12.77,12.77,0,0,0-2.88.78c-2.14,1-4.22,2.29-4.89,5.23,0,.21-.06.39-.08.58a2.88,2.88,0,0,0,0,.59,10,10,0,0,0,.07,1.66l.08,6v.13l0,.14a10.92,10.92,0,0,0,1,3.13,6.88,6.88,0,0,0,3.95,3.16c.6.21,1.21.37,2,.56a9.28,9.28,0,0,0,1.7.24l.26,0c.95,0,1.77,0,1.95,0l13.17.13.88,0,.68.05a19.69,19.69,0,0,1,2,.24,14,14,0,0,1,1.53.4c2.89,1,3.35,2.92,3.16,6.06l0,.3,0,.49,0,.66c-.07,1-.13,1.87-.19,2.74,0,.3,0,.59,0,.9l-.06.77c-.06,1.11-.1,2.14-.16,3.16l-.14,2.24c-.22,3.14-.53,5.77-1,8.79-1.73,10.87-3.57,18.55-7.9,25.51-.83,1.35-2.11,1.92-4.11,1.85l-.37,0a21.71,21.71,0,0,1-4.33-.91l-.19-.06a16.92,16.92,0,0,1-2.24-1.05l-.05,0-.07,0-10.59-4.93a13.07,13.07,0,0,0-2.33-1.16l0,0h-.06a12.89,12.89,0,0,0-2.6-.6,6.32,6.32,0,0,0-4.33,1.09c-3.32,2.26-5.53,8.16-6,9.39a8.44,8.44,0,0,0-.83,2.22,2.71,2.71,0,0,0-.09.62c-.25,2.63,1.08,4.48,2.36,6a14.45,14.45,0,0,0,3.39,2.62l11.27,7.38,3.2,2.31a4.83,4.83,0,0,1,2.17,3.28c.25,1.79-.66,4.06-2.51,6.42-.54.66-1,1.28-1.49,1.89,11.88-5.8,24-8.74,35.42-11.24l6.53-1.43a11.54,11.54,0,0,1,5.42.11,11.71,11.71,0,0,1,2-.61l6.46-1.28c4.49-.88,23.24-4.62,42.21-8.4l50-9.94a11.54,11.54,0,0,1,13.56,9.07l1.28,6.46,20.92,105.21A11.56,11.56,0,0,1,581,348.86Zm-291.94-312v0Zm15.79,1h0l0-.07v-.1l0,.18Zm-58,28.61h0ZM202.14,215.81l-.06,0h0l.07-.05ZM226.5,43.27h0l-.05,0,.09,0Zm77.26,214.32h0l.07,0-.09,0ZM354.28,56.46Zm-10.64,15.4,0,0h0l0,.06Zm12.2,83.8c-.58,15.55-3.53,24.89-11.3,35.68l-.19.33c-.08.18-2.14,4.46-8.61,4.46a25.46,25.46,0,0,1-10.37-2.69,34.39,34.39,0,0,0-5.7-1.8l-2.65-.71a98.76,98.76,0,0,0-26.41-3.33h-.45c-14.7.08-26.19,2.21-35.12,6.52a27.91,27.91,0,0,1-6.58.81c-5.67,0-9.87-1.83-12.48-5.43-7.36-10.19-9.09-16.67-10.39-28.24-.71-6.31,0-9.64,1.25-15.68l.23-1.1,0-.17c0-.3,1-7.43,9.15-7.43.27,0,.55,0,.94,0h21.1a4.46,4.46,0,0,1,1.19.15,4.39,4.39,0,0,1,3.25,4.13l-8.15,34.49v.27a7.65,7.65,0,0,0,5.52,7,7.74,7.74,0,0,0,2,.26h0l56.19-.28a7.4,7.4,0,0,0,5.29-2.25,7.69,7.69,0,0,0,2.16-5v-.27L317.29,141l0-.18a4.22,4.22,0,0,1,1.26-2.89,4.46,4.46,0,0,1,3.13-1.34h22.56a9.52,9.52,0,0,1,10,6.17c1.59,5.07,1.85,7.12,1.63,12.91ZM307.1,216a44.66,44.66,0,0,1-28.25,2.34,52.72,52.72,0,0,1-6-1.9s-6.81-2.73-.44-5.21c5-2.47,11-3.1,17.24-3.18a40.93,40.93,0,0,1,10.63,1.17,38.89,38.89,0,0,1,6.71,2.32c6,2.2.12,4.46.12,4.46Zm-28.39-98.14h0Zm-39.23-5.79a67,67,0,0,1,50.44-23.17h.31a66.66,66.66,0,0,1,50.16,22.79c1.21,1.23,1.52,2.09,1.41,2.48-.17.58-1.33,1.17-2.16,1.42l-38.53.25c-4.33,0-7.5,3.27-7.71,7.86V124l8.37,32.63v.28a6.6,6.6,0,0,1-1.94,4.63A7,7,0,0,1,295,163.6l-9.76.05a6.78,6.78,0,0,1-6.79-6.58v-.38l8-32.66,0-.27a7.81,7.81,0,0,0-5.58-7.5,8.59,8.59,0,0,0-2.13-.28l-36,.16h-.2c-.05,0-.52,0-1.18,0-2.06,0-3.08-.48-3.23-.79s0-1.33,1.42-3.32Zm119.68-9.75a87.15,87.15,0,0,0-69.24-34h-.27c-48.19.34-87.2,39.9-87,88.19a87.36,87.36,0,0,0,87.37,87.3h.51a87.79,87.79,0,0,0,68.6-141.47Z"/></g></g><path id="Fill-6" class="cls-7" d="M387.37,346.36l-1.29-6.46-6.45,1.29-33.35,6.66-1.38-7,28.53-5.7,6.44-1.29-1.28-6.46-3.1-15.6-1.28-6.46-6.45,1.28-28.34,5.67-1.38-6.9,33.16-6.63,6.44-1.29L376.36,291l-5.6-28.09-6.42,1.29c-6.82,1.35-37,7.39-53.26,10.63L302,276.67,295.58,278,317.8,389.68l6.45-1.31,7.51-1.49c15.51-3.09,47.75-9.54,54.78-10.93l6.47-1.29-1.3-6.47-4.34-21.83Zm-111-28.64L292,314.6l6.45-1.28-1.29-6.47-5.6-28-6.44,1.29-39.92,7.94-28.11,5.59-6.45,1.28,5.59,28.1,1.29,6.47,6.44-1.29L240.27,325l14.06,70.69,1.29,6.45,6.45-1.28,23.23-4.65,6.46-1.29-1.29-6.45-14.06-70.7Zm191.11,12.76-1.36-6.79-6.69,1.7c-5.52,1.38-11.47,2.6-17.59,2.09a25.6,25.6,0,0,1-8.32-2c-3.66-2.26-8.33-6.17-10.05-12.08l0-.08c-.12-.41-.26-1.1-.32-1.33a34.51,34.51,0,0,1-.56-8.16l.06-.57a7.41,7.41,0,0,1,.26-1.61l.06-.2.05-.21c2.46-11,18.86-15.91,28.42-17.83l6.43-1.3-1.28-6.45L452,252.53l-1.32-6.59-6.53,1.44c-11.09,2.43-22.86,5.27-34,10.89l-.28.14-.26.16c-14.87,9.37-25.31,26.19-26.6,42.85-.11,1.46-.16,2.88-.14,4.23a72,72,0,0,0,1.34,13.85,57.75,57.75,0,0,0,24.93,37.68c6.33,4.17,13.64,6.54,22.35,7.26,11.78,1,24.43-1.32,35.36-3.56l6.41-1.31-5.78-29.09Zm46.91-32.25c1.05-9,7.06-21.08,13.26-27l4.66,23.45-17.92,3.57Zm63,32.83-19.63-98.74-1.29-6.45-6.44,1.28-13,2.6-72.69,14.47-6.46,1.28,1.3,6.47,4.29,21.63,1.28,6.47,6.46-1.31L484,276.19l-1.95,7.55c-2.89,10.91-5.63,21.22-6.76,35.65-.08,1-.15,2-.23,3.41v.38a128.14,128.14,0,0,0,2.24,23.16c.37,1.83.75,3.43,1.14,4.92l1.58,6,6.06-1.21,25.68-5.12,6.47-1.28-3.7-18.52,24.12-4.81,2.39,12,1.29,6.46,6.45-1.29,23.54-4.7,6.44-1.29-1.28-6.46ZM76.72,385.7c1-8.94,7-21.09,13.25-27l4.66,23.45L76.72,385.7Zm43.4-65.9-1.29-6.46-6.44,1.28-3.65.73c-49,9.75-76.59,15.25-82.07,16.33L20.21,333l1.28,6.48,5.6,28.09,6.45-1.3,12.75-2.57-2,7.54v0c-2.79,10.5-5.42,20.42-6.62,34l-.13,1.61c-.08,1-.16,2.12-.23,3.44v.37a125.64,125.64,0,0,0,2.24,23.17c.32,1.63.7,3.28,1.14,4.92l1.57,6,6.07-1.22L74,438.38l6.47-1.29-1.3-6.47-2.39-12,24.1-4.82,2.39,12.06,1.29,6.46,6.45-1.3,23.54-4.7,6.46-1.31-1.29-6.45L120.12,319.8Zm102.32,59.72-1.29-6.46-6.44,1.29L186.57,380l24.91-48.14,1.05-2.06-6.73-33.86-6.43,1.27-68.79,13.74-6.44,1.3,5.59,28.08,1.28,6.47,6.46-1.3L164.73,340c-2.94,6-6.17,12-9.29,17.82l-.1.15c-4.94,9.18-10.54,19.58-15,30.3l-.76,1.85.4,2,6.33,31.82,6.45-1.29c9.16-1.84,60.31-12.05,68.76-13.73l6.45-1.28-5.58-28.11Z"/><path id="Fill-7" class="cls-4" d="M527.37,272.24c-5.78,6-11.14,17-12.34,25.35l16.71-3.33-4.37-22Zm-13.52,26.63.08-.7c1-9,7.06-21.26,13.4-27.33l.67-.65,5,24.87-19.1,3.81ZM484.7,275.53l-2.2,8.5c-2.87,10.84-5.58,21.08-6.7,35.4-.08,1-.15,2-.22,3.39l0,.21v.15a128.41,128.41,0,0,0,2.23,23.06c.36,1.77.73,3.37,1.13,4.89l1.46,5.51,5.59-1.11,25.69-5.12,6-1.18-3.7-18.52,25.12-5,3.68,18.51,35.43-7.08-22-110.65-49.57,9.88-42.1,8.37-6,1.18,6.67,33.56,19.51-3.93Zm-5.06,82.31-1.71-6.45c-.4-1.54-.78-3.16-1.14-4.95a128.72,128.72,0,0,1-2.25-23.26l0-.43c.07-1.37.14-2.43.22-3.41,1.12-14.4,3.85-24.69,6.73-35.58l1.79-6.9-18.91,3.81-7.07-35.57,7-1.38,42.1-8.38L557,225.27l22.4,112.65-37.43,7.48-3.68-18.5-23.12,4.62L518.83,350l-7,1.37-25.68,5.12-6.53,1.31ZM450.29,246.56l-6,1.32c-11.08,2.43-22.81,5.26-33.85,10.84l-.52.29c-14.71,9.28-25.06,25.95-26.34,42.45-.11,1.46-.16,2.86-.13,4.18a71,71,0,0,0,1.32,13.76,57.23,57.23,0,0,0,24.71,37.35c6.24,4.12,13.47,6.46,22.11,7.18,1.84.15,3.78.23,5.78.23h0c10.12,0,20.5-2,29.44-3.78l5.91-1.21-6.94-34.86-6.17,1.57a60.59,60.59,0,0,1-14.79,2.23c-1,0-2,0-3-.12a25.76,25.76,0,0,1-8.49-2.09c-3.77-2.32-8.56-6.32-10.33-12.4-.1-.36-.2-.78-.27-1.1l-.08-.33a35.55,35.55,0,0,1-.57-8.32l.06-.58a8.4,8.4,0,0,1,.28-1.71l.11-.39c2.52-11.3,19.13-16.26,28.81-18.21l5.93-1.19-7-35.11ZM437.35,365.18h0c-2,0-4-.08-5.87-.23-8.81-.73-16.19-3.13-22.58-7.35a58.22,58.22,0,0,1-25.15-38,72.15,72.15,0,0,1-1.35-14c0-1.34,0-2.78.14-4.27,1.3-16.81,11.84-33.79,26.83-43.24l.59-.33c11.14-5.64,23-8.49,34.09-10.93l7-1.55,7.4,37.14-6.93,1.4c-9.43,1.9-25.62,6.68-28,17.44l-.12.44a7.9,7.9,0,0,0-.24,1.51l-.06.58a34,34,0,0,0,.55,8l.08.32c.07.3.16.7.23,1,1.7,5.84,6.29,9.66,9.85,11.86a25,25,0,0,0,8.09,2c.94.07,1.9.11,2.88.11a59.81,59.81,0,0,0,14.54-2.19l7.22-1.83L473.9,360,467,361.38c-9,1.84-19.42,3.8-29.64,3.8ZM89.65,359.7c-5.78,6-11.14,17-12.33,25.36L94,381.72l-4.38-22ZM76.13,386.34l.08-.7c1-9,7.06-21.26,13.4-27.34l.68-.65,4.94,24.87-19.1,3.82Zm220.05-108,22,110.7,13.46-2.69,29.85-6,24.93-5,6-1.18-6.72-33.76-5.95,1.19-33.35,6.66-.5.1-1.58-8,35-7L373.81,306l-34.79,7-1.58-7.9,39.6-7.92-6.68-33.54-5.92,1.18c-6.82,1.35-37,7.39-53.26,10.63l-15,3ZM317.4,390.28,295,277.56l16-3.2c16.23-3.25,46.44-9.29,53.26-10.63l6.93-1.39,7.07,35.56-39.6,7.91,1.18,5.9,34.8-6.95,5.85,29.52-35,7,1.18,6c9.83-2,27.21-5.42,32.85-6.56l7-1.39,7.13,35.78-7,1.38-24.93,5-29.85,6-14.46,2.9Zm-76.73-65.94L256,401.49l35.14-7-15.35-77.16,22-4.39-6.69-33.48-5.94,1.18-39.92,7.94-28.11,5.59-5.95,1.18,6.68,33.56,22.77-4.55Zm14.54,78.36-15.34-77.15L217.1,330.1,210,294.53l6.95-1.38,28.11-5.6L285,279.62l6.94-1.39L299,313.72l-22,4.4,15.35,77.15-37.15,7.43Zm-115-12.5,6.59,33.13,6-1.19,68.76-13.74,5.95-1.17-6.67-33.57-35.12,7,26.37-51-6.6-33.19-5.94,1.18c-8.88,1.76-60.52,12.08-68.78,13.74l-5.94,1.19,6.67,33.54,34.24-6.84-.46.93c-2.81,5.73-5.88,11.46-8.85,17l-.56,1c-4.93,9.15-10.52,19.53-14.91,30.22l-.7,1.71ZM146,424.54,139.1,390.1l.82-2c4.42-10.74,10-21.14,15-30.33l.56-1c2.8-5.23,5.7-10.63,8.37-16l-33.2,6.64-7.08-35.56,6.95-1.39c8.26-1.66,59.91-12,68.79-13.74l6.94-1.37,6.86,34.54-1.14,2.21-24.42,47.19,34-6.8L228.62,408l-7,1.38-68.75,13.73-6.95,1.4ZM44.84,371.26v.1c-2.78,10.44-5.41,20.31-6.61,33.9l-.13,1.61c-.08,1-.16,2.11-.23,3.43v.34a125.05,125.05,0,0,0,2.23,23.07c.34,1.69.72,3.34,1.13,4.89l1.45,5.52,37.24-7.43-3.68-18.51,25.1-5L105,431.68l35.44-7.11-1.18-5.95L118.43,313.94l-28.74,5.72c-37.06,7.38-58.2,11.59-62.93,12.52l-6,1.19,6.68,33.56L47,363l-2.15,8.26Zm-2.93,74.06-1.68-6.46c-.42-1.57-.81-3.23-1.15-4.95a125.94,125.94,0,0,1-2.25-23.27v-.39c.07-1.33.15-2.43.23-3.46l.13-1.62c1.21-13.65,3.84-23.55,6.62-34l0-.08,1.75-6.75-18.91,3.82-7.07-35.58,7-1.38L89.5,318.66l29.73-5.93,22.42,112.65-7,1.4-30.5,6.1-3.68-18.52L77.42,419l3.69,18.51-39.2,7.83Z"/><path id="Fill-8" class="cls-4" d="M292.83,285.28l-1.29-6.45-6.5,9.95c-4.92,1-64.16,13.06-64.16,13.06l4.9,15.49L217.5,329.5l6.44-1.29L240.27,325l7.16-10.16,16.69,74.93-8.5,12.37,6.45-1.28,23.23-4.65,6.46-1.29-1.29-6.45-14.06-70.7L292,314.6l6.45-1.28-1.29-6.47-4.31-21.57Zm-70.39,94.24-1.29-6.46-8.42,12.4-40,5L186.57,380l24.91-48.14,1.05-2.06-6.73-33.86-6.73,10.32c-8.88,1.76-47.74,11.26-56,12.91l-10.9-1.63,2.85,1.78,1.51,19L131,346.77l6.46-1.3L164.73,340c-.56,1.15,13.34-10.71,12.75-9.56-2.45,4.85-12.53,26.69-15.07,31.4l-9,51.62-7,10.44,6.45-1.29c9.16-1.84,60.31-12.05,68.76-13.73l6.45-1.28-5.58-28.11Zm164.93-33.16-1.29-6.46-8.6,12.75c-3.94.8-39.15,7.28-39.15,7.28s8.2-12.12,7.95-12.08l-1.38-7,28.53-5.7,6.44-1.29-1.28-6.46-3.1-15.6-1.28-6.46-6.63,9.9L333,322.31l6.44-10-1.38-6.9,33.16-6.63,6.44-1.29L376.36,291l-5.6-28.09-8.34,12.42c-6.8,1.36-16.91,3.71-32.55,7.23L307,285.24l4.54,4.91,14.9,86.57-8.62,13,6.45-1.31,7.51-1.49c15.51-3.09,47.75-9.54,54.78-10.93l6.47-1.29-1.3-6.47-4.34-21.83ZM102.9,387.29l-8.36-41L90,358.67c-6.21,5.94-12.22,18.09-13.25,27l-7.12,8.12,33.3-6.53Zm36.86,31.23,1.29,6.45-6.46,1.31L111.05,431l-6.45,1.3,5.35-8-3.13-19.49-5.9,9-24.1,4.82,2.39,12,1.3,6.47L74,438.38,48.36,443.5l-6.07,1.22,5.22-8.31c-.42-1.62,8.41-81.74,8.41-81.74l-9.63,9-12.75,2.57-6.45,1.3,5.12-7.8-4-21.61c5.48-1.07,33.1-6.58,82.08-16.33l3.63-.73,4.9-7.72,20.93,105.18ZM546.54,303.4,538,247.59l-10.26,23.62c-6.2,5.94-12.21,18.07-13.26,27l17.92-3.57,14.19,8.74Zm32.21,34.12-6.44,1.29-23.54,4.7-6.45,1.29L551,330.9l.64-22.67-13,18.07-24.12,4.81,3.7,18.52-6.47,1.28L486.07,356,480,357.24l10.07-16.1c-.39-1.5,8.09-68.63,11-79.53L484,276.19l-12.75,2.57-6.46,1.31,10.65-14.53-1.86-10.63,11.65-1.23c7.08-1.41,62.68-13.52,62.68-13.52l8.64-14.29,1.29,6.45,19.63,98.74,1.28,6.46ZM472,353.27l1.27,6.44-6.42,1.3c-10.93,2.24-23.57,4.54-35.35,3.57-8.72-.73-16-3.1-22.36-7.26a57.18,57.18,0,0,1-17.29-17.87c8.36-10.11,10.68-12.33,9.9-13.91-2.31-4.7-7.51-18.34-7.7-19.79-.42-3.11,39.09-47.8,50.19-50.24l6.42-9.43,7.19,36.12-6.43,1.3c-9.55,1.93-25.94,6.8-28.41,17.83l0,.21-.06.21a7.85,7.85,0,0,0-.27,1.61l0,.56a34.58,34.58,0,0,0,.57,8.17c.05.22-5.3,6.4-5.18,6.81,0,0,2.68,11.72,11,15.51,10.22,4.69,26.69,1.58,29.75.81l7.45-11.39L472,353.27Z"/><path id="Fill-9" class="cls-2" d="M44.26,405.8c1.15-13,3.73-22.74,6.44-32.94l4.59-17.73-23,4.65-4.3-21.64c9.06-1.79,76.68-15.25,85.73-17.05l19.64,98.72-23.54,4.71L106.08,406l-37,7.4,3.69,18.5L47.07,437c-.38-1.46-.73-3-1-4.52a120,120,0,0,1-2.12-21.88c.06-1.11.14-2.2.22-3.27l.13-1.57Zm25.84-20c0,.32-.06.63-.07.94l-.42,7.13,32.76-6.55-8.1-40.66-7.06,5.69C79,359,71.12,374.36,70.1,385.78Zm346-82.49a40.42,40.42,0,0,0,.69,10c.14.73.3,1.39.46,1.94,2.35,8,8.38,13.06,13,15.91l.29.18.3.13c10.88,4.89,23.08,2.14,30.24.34l4.5,22.66c-18.18,3.71-38,6.95-52.75-2.74a51.33,51.33,0,0,1-22.12-33.48,63.9,63.9,0,0,1-1.21-12.63c0-1.21,0-2.43.11-3.64,1.13-14.61,10.26-29.41,23.55-37.79,10.13-5.12,21-7.83,32.41-10.33l4.6,23.08c-13.12,2.65-30.4,8.8-33.54,22.85a15.59,15.59,0,0,0-.51,2.89l-.06.65Zm-85.74-3.05,3.94,19.81,34.8-6.94,1.51,7.69,1.59,7.9-35,7,3.94,19.91s31.74-6.32,39.81-8l4.34,21.84L323,381.92l-19.65-98.78c8.52-1.71,53.78-10.76,62.3-12.45l4.3,21.62-39.6,7.93Zm-61.62,12.3L284,389.69l-23.24,4.66L245.43,317.2l-22.78,4.54-4.3-21.63,68-13.53,4.31,21.57-22,4.39ZM146.47,390.82c4.17-10.12,9.48-20.06,14.68-29.69,3.52-6.56,7.16-13.34,10.46-20.18l4.77-10-40.2,8-4.31-21.62,68.77-13.74,5,25.14L174.43,389.1,216,380.8l4.29,21.64-68.76,13.74-5.05-25.36ZM481.84,319.9c1.08-13.83,3.76-23.9,6.58-34.51L493,267.66,470,272.32l-4.3-21.63,85.75-17.08L571,332.35l-23.54,4.7-3.68-18.5-37,7.38,3.69,18.52-25.71,5.12c-.39-1.46-.73-3-1-4.52a119.91,119.91,0,0,1-2.11-21.88c.07-1.11.13-2.2.22-3.27Zm26-21.58c0,.31-.06.63-.07.93l-.41,7.12,32.74-6.54L532,259.18l-7.08,5.69c-8.25,6.63-16.08,22-17.1,33.45Z"/><path id="Fill-10" class="cls-8" d="M93.94,347.57l-6.41,5.16c-8.15,6.56-15.9,21.72-16.92,33.09a8,8,0,0,0-.06.91l-.39,6.48,31.61-6.31-7.83-39.33ZM69.07,394.48l.45-7.79c0-.28,0-.57.06-.88,1-11.69,9-27.17,17.31-33.88l7.72-6.22,8.36,42-33.9,6.78ZM56,354.46,51.2,373c-2.73,10.27-5.29,19.89-6.43,32.85l-.13,1.57c-.08,1.07-.16,2.15-.22,3.26a119.79,119.79,0,0,0,2.11,21.75c.27,1.37.58,2.72.91,4l24.73-4.94L68.48,413l38-7.61,3.69,18.52,22.54-4.51-19.44-97.72-23.76,4.73-61,12.13,4.1,20.62L56,354.46ZM46.7,437.64l-.12-.46c-.39-1.48-.74-3-1-4.56a121.08,121.08,0,0,1-2.13-22c.06-1.15.14-2.24.22-3.31l.13-1.58C44.9,392.7,47.47,383,50.19,372.8l4.4-17-22.75,4.59-4.5-22.64.5-.1c6-1.19,38.09-7.57,61.47-12.23l24.76-4.93,19.84,99.73-24.54,4.92-3.69-18.52-36,7.2,3.68,18.5L46.7,437.64ZM445.16,254.43c-10.51,2.31-21.59,5-31.78,10.17-13,8.2-22.15,22.88-23.27,37.38a34.29,34.29,0,0,0-.11,3.59,63.38,63.38,0,0,0,1.2,12.54,50.82,50.82,0,0,0,21.9,33.16c6.45,4.24,14.39,6.3,24.28,6.3,9.23,0,19.05-1.81,27.59-3.54l-4.3-21.63a65.31,65.31,0,0,1-15.95,2.3,34.19,34.19,0,0,1-14.1-2.8l-.29-.13-.36-.22c-4.73-2.89-10.88-8-13.26-16.19-.15-.52-.31-1.16-.47-2a41,41,0,0,1-.7-10.11l.06-.67a15.56,15.56,0,0,1,.53-3c3.13-14,19.79-20.29,33.43-23.11l-4.4-22.07ZM437.38,358.6c-10.09,0-18.22-2.12-24.84-6.48a51.75,51.75,0,0,1-22.34-33.81A64.61,64.61,0,0,1,389,305.58c0-1.15,0-2.36.12-3.68,1.14-14.81,10.48-29.8,23.79-38.19,10.5-5.3,21.85-8,32.57-10.4l.51-.11,4.8,24.1-.5.1c-13.43,2.71-30.09,8.81-33.14,22.46a14.59,14.59,0,0,0-.5,2.83l-.06.65a39.28,39.28,0,0,0,.68,9.83c.16.8.3,1.4.45,1.89,2.29,7.84,8.24,12.82,12.82,15.62l.52.28a33.22,33.22,0,0,0,13.69,2.71,65.4,65.4,0,0,0,16.22-2.4l.52-.13,4.71,23.69-.5.1c-8.7,1.77-18.78,3.67-28.29,3.67ZM303.91,283.54l19.45,97.78,61.3-12.24-4.14-20.82-39.31,7.84-.5.1-4.14-20.91,35-7-2.89-14.59-34.8,6.94-4.14-20.81,39.6-7.93-4.1-20.62-61.3,12.25Zm18.64,99-19.84-99.78.5-.1c8.52-1.72,53.78-10.76,62.31-12.46l.5-.09,4.5,22.63-39.61,7.93,3.74,18.8,34.8-6.94,3.3,16.59-35,7,3.74,18.9c4.08-.81,31.84-6.34,39.31-7.84l.5-.1,4.54,22.84-.5.1-62.3,12.43-.51.1Zm-76.72-65.93,15.35,77.16,22.24-4.46-15.34-77.15,22-4.39L286,287.18,248.2,294.7,219,300.51l4.11,20.63,22.77-4.55ZM260.38,395,245,317.8l-22.77,4.54-4.5-22.63.5-.1L248,293.69l38.29-7.61.5-.1,4.51,22.57-22,4.39,15.33,77.16L260.38,395ZM147,390.87l4.92,24.71L219.68,402l-4.09-20.64-42.1,8.41,31.61-61.1-4.86-24.46c-9.83,1.95-58,11.58-67.76,13.54l4.1,20.62,40.7-8.13-5.21,10.89c-3.23,6.7-6.79,13.34-10.24,19.76l-.23.44C156,371.79,151,381.21,147,390.87Zm4.11,25.91-5.17-26,.06-.14c4-9.75,9-19.24,14.7-29.74l.23-.43c3.44-6.42,7-13.05,10.22-19.72l4.32-9-39.69,7.92L131.27,317l.5-.1c8.7-1.74,60.07-12,68.77-13.74l.5-.1,5.14,25.82-.09.16-30.71,59.36,41-8.19,4.49,22.65-.5.1-68.76,13.73-.51.1ZM531.66,260.1l-6.42,5.16c-8.15,6.56-15.89,21.71-16.91,33.1,0,.3-.05.59-.07.86l-.37,6.52,31.59-6.31-7.82-39.33ZM506.79,307l.45-7.78a9.61,9.61,0,0,1,.07-1c1-11.6,9-27.08,17.29-33.78l7.73-6.22,8.35,42L506.79,307ZM493.7,267l-4.82,18.66c-2.81,10.58-5.45,20.56-6.53,34.29-.07.9-.13,1.81-.19,2.75l0,.51A119.3,119.3,0,0,0,484.24,345c.29,1.46.59,2.79.91,4l24.74-4.92-3.7-18.52,38-7.59,3.69,18.51,22.53-4.51L551,234.21l-84.74,16.88,4.1,20.62L493.7,267Zm-9.29,83.17-.12-.46c-.37-1.39-.72-2.88-1.06-4.55a120.67,120.67,0,0,1-2.12-22l0-.55c.06-.94.12-1.85.19-2.76,1.08-13.82,3.74-23.85,6.56-34.47l0-.13,4.38-16.94-22.75,4.6-4.5-22.64.5-.1,85.75-17.07.5-.1,19.83,99.74-24.55,4.91-3.69-18.51-36,7.19,3.69,18.51-.5.1-25.71,5.12-.47.09Z"/><path id="Fill-11" class="cls-6" d="M442.44,210a3.17,3.17,0,0,0-1.51-.27h-1.08v2.58H441a3.3,3.3,0,0,0,1.19-.16,1.09,1.09,0,0,0,.73-1.11,1.07,1.07,0,0,0-.47-1Zm-1.35-1.13a5.45,5.45,0,0,1,1.94.26,1.77,1.77,0,0,1,1.1,1.8,1.54,1.54,0,0,1-.69,1.41,2.88,2.88,0,0,1-1,.35,1.74,1.74,0,0,1,1.22.69,2,2,0,0,1,.39,1.11V215a5,5,0,0,0,0,.53,1.6,1.6,0,0,0,0,.37l.05.09H443a.19.19,0,0,1,0-.07s0,0,0-.08l0-.22v-.58a1.75,1.75,0,0,0-.67-1.62,3,3,0,0,0-1.4-.23h-1V216h-1.26v-7.13Zm-3.81-.37a5.4,5.4,0,0,0-1.63,4,5.46,5.46,0,0,0,1.62,4,5.55,5.55,0,0,0,7.88,0,5.65,5.65,0,0,0,0-7.94,5.56,5.56,0,0,0-7.87,0Zm8.52,8.56a6.47,6.47,0,0,1-9.18,0,6.37,6.37,0,0,1-1.87-4.61,6.48,6.48,0,1,1,11.05,4.61Z"/><path id="Fill-12" class="cls-6" d="M601.82,331.93a3,3,0,0,0-1.5-.27h-1.05v2.55h1.12a3.51,3.51,0,0,0,1.18-.15,1.09,1.09,0,0,0,.72-1.11,1.07,1.07,0,0,0-.47-1Zm-1.34-1.12a5.29,5.29,0,0,1,1.92.26,1.74,1.74,0,0,1,1.09,1.78,1.51,1.51,0,0,1-.69,1.39,2.39,2.39,0,0,1-1,.34,1.68,1.68,0,0,1,1.2.69,1.94,1.94,0,0,1,.39,1.09v.52c0,.17,0,.34,0,.52a1.69,1.69,0,0,0,.05.37l0,.08h-1.16s0,0,0-.07a.56.56,0,0,1,0-.07l0-.23v-.56a1.72,1.72,0,0,0-.66-1.61,3.11,3.11,0,0,0-1.38-.23h-1v2.77H598v-7Zm-3.76-.35a5.59,5.59,0,0,0,0,7.83,5.46,5.46,0,0,0,7.78,0,5.4,5.4,0,0,0,1.61-3.93,5.33,5.33,0,0,0-1.61-3.9,5.46,5.46,0,0,0-7.78,0Zm8.42,8.44a6.39,6.39,0,0,1-9,0,6.42,6.42,0,0,1,0-9.07A6.39,6.39,0,0,1,607,334.35a6.21,6.21,0,0,1-1.87,4.55Z"/></g></svg>