<svg id="Layer_1" data-name="Layer 1" xmlns="http://www.w3.org/2000/svg" viewBox="0 0 22.3 344.97"><defs><style>.cls-1{fill:#fff;}</style></defs><title>Artboard 1</title><polygon class="cls-1" points="10.96 71.57 22.3 46.33 10.93 21.02 10.93 0 0.93 0 0.93 23.14 0.92 23.15 0.93 23.17 0.93 23.18 0.94 23.18 11.34 46.33 0 71.57 11.34 96.8 0 122.03 11.34 147.26 0 172.49 11.34 197.71 0 222.94 11.34 248.16 0 273.39 11.34 298.61 0.92 321.79 0.93 321.8 0.93 344.97 10.93 344.97 10.93 323.92 22.3 298.61 10.96 273.39 22.3 248.16 10.96 222.94 22.3 197.71 10.96 172.49 22.3 147.26 10.96 122.03 22.3 96.8 10.96 71.57"/></svg>