<svg id="Layer_1" data-name="Layer 1" xmlns="http://www.w3.org/2000/svg" viewBox="0 0 344.97 22.3"><defs><style>.cls-1{fill:#fff;}</style></defs><title>Artboard 3</title><polygon class="cls-1" points="273.4 10.96 298.64 22.3 323.95 10.93 344.97 10.93 344.97 0.93 321.82 0.93 321.82 0.92 321.8 0.93 321.78 0.93 321.78 0.94 298.64 11.34 273.4 0 248.17 11.34 222.94 0 197.71 11.34 172.48 0 147.26 11.34 122.03 0 96.81 11.34 71.58 0 46.35 11.34 23.18 0.92 23.17 0.93 0 0.93 0 10.93 21.05 10.93 46.35 22.3 71.58 10.96 96.81 22.3 122.03 10.96 147.26 22.3 172.48 10.96 197.71 22.3 222.94 10.96 248.17 22.3 273.4 10.96"/></svg>