<svg id="Layer_1" data-name="Layer 1" xmlns="http://www.w3.org/2000/svg" viewBox="0 0 344.97 22.3"><defs><style>.cls-1{fill:#cccccb;}</style></defs><title>Artboard 23</title><polygon class="cls-1" points="71.57 11.34 46.33 0 21.02 11.37 0 11.37 0 21.37 23.14 21.37 23.15 21.38 23.17 21.37 23.18 21.37 23.18 21.36 46.33 10.96 71.57 22.3 96.8 10.96 122.03 22.3 147.26 10.96 172.49 22.3 197.71 10.96 222.94 22.3 248.16 10.96 273.39 22.3 298.61 10.96 321.79 21.38 321.8 21.37 344.97 21.37 344.97 11.37 323.92 11.37 298.61 0 273.39 11.34 248.16 0 222.94 11.34 197.71 0 172.49 11.34 147.26 0 122.03 11.34 96.8 0 71.57 11.34"/></svg>