<svg id="Layer_1" data-name="Layer 1" xmlns="http://www.w3.org/2000/svg" viewBox="0 0 43.3 628.64"><defs><style>.cls-1{fill:#fff;}</style></defs><title>Artboard 20</title><path class="cls-1" d="M6.49,628.64H0c0-23.62,9.73-35.5,19.14-47,9.08-11.09,17.67-21.56,17.67-42.87S28.22,507,19.14,495.92C9.73,484.44,0,472.57,0,449s9.73-35.48,19.14-47c9.08-11.08,17.67-21.54,17.67-42.83s-8.59-31.77-17.67-42.86C9.73,304.83,0,293,0,269.34s9.73-35.48,19.14-47c9.08-11.08,17.67-21.54,17.67-42.82s-8.59-31.75-17.67-42.82C9.73,125.26,0,113.39,0,89.79S9.73,54.32,19.14,42.84C28.22,31.76,36.81,21.29,36.81,0H43.3c0,23.61-9.73,35.48-19.14,47C15.07,58,6.49,68.51,6.49,89.79s8.58,31.75,17.67,42.83C33.57,144.09,43.3,156,43.3,179.56S33.57,215,24.16,226.5c-9.09,11.09-17.67,21.55-17.67,42.84s8.58,31.76,17.67,42.84c9.41,11.49,19.14,23.36,19.14,47s-9.73,35.47-19.14,46.95C15.07,417.19,6.49,427.66,6.49,449s8.58,31.77,17.67,42.86c9.41,11.48,19.14,23.35,19.14,47s-9.73,35.5-19.14,47C15.07,596.86,6.49,607.34,6.49,628.64Z"/></svg>