<svg id="Layer_1" data-name="Layer 1" xmlns="http://www.w3.org/2000/svg" viewBox="0 0 104.48 675.79"><defs><style>.cls-1{fill:#fff;}</style></defs><title>Artboard 11</title><path class="cls-1" d="M54.33,628.64H47.84c0-23.62,9.73-35.5,19.13-47,9.09-11.09,17.67-21.56,17.67-42.87S76.06,507,67,495.92c-9.4-11.48-19.13-23.35-19.13-47S57.57,413.47,67,402c9.09-11.08,17.67-21.54,17.67-42.83S76.06,327.39,67,316.3c-9.4-11.47-19.13-23.35-19.13-47s9.73-35.48,19.13-47c9.09-11.08,17.67-21.54,17.67-42.82S76.06,147.81,67,136.74c-9.4-11.48-19.13-23.35-19.13-46.95S57.57,54.32,67,42.84C76.06,31.76,84.64,21.29,84.64,0h6.49c0,23.61-9.73,35.48-19.14,47C62.91,58,54.33,68.51,54.33,89.79S62.91,121.54,72,132.62C81.4,144.09,91.13,156,91.13,179.56S81.4,215,72,226.5c-9.08,11.09-17.66,21.55-17.66,42.84S62.91,301.1,72,312.18c9.41,11.49,19.14,23.36,19.14,47S81.4,394.63,72,406.11C62.91,417.19,54.33,427.66,54.33,449S62.91,480.72,72,491.81c9.41,11.48,19.14,23.35,19.14,47s-9.73,35.5-19.14,47C62.91,596.86,54.33,607.34,54.33,628.64Z"/><polygon class="cls-1" points="51.54 675.79 0 609.68 5.12 605.68 51.58 665.28 99.39 604.81 104.48 608.85 51.54 675.79"/></svg>