<svg id="Layer_1" data-name="Layer 1" xmlns="http://www.w3.org/2000/svg" viewBox="0 0 303.74 3.83"><defs><style>.cls-1{fill:#cccccb;}</style></defs><title>Squiggles</title><path class="cls-1" d="M303.24,3.83a3.12,3.12,0,0,1-2.53-1.61C300.14,1.46,299.76,1,299,1s-1.17.46-1.73,1.22a3.12,3.12,0,0,1-2.53,1.61,3.1,3.1,0,0,1-2.53-1.61c-.57-.76-1-1.22-1.74-1.22s-1.16.46-1.73,1.22a3.1,3.1,0,0,1-2.53,1.61,3.12,3.12,0,0,1-2.53-1.61c-.57-.76-1-1.22-1.73-1.22s-1.16.46-1.73,1.22a2.79,2.79,0,0,1-5.06,0c-.57-.76-1-1.22-1.73-1.22s-1.17.46-1.74,1.22a3.1,3.1,0,0,1-2.53,1.61,3.12,3.12,0,0,1-2.53-1.61C266,1.46,265.66,1,264.88,1s-1.16.46-1.73,1.22a3.12,3.12,0,0,1-2.53,1.61,3.1,3.1,0,0,1-2.53-1.61c-.57-.76-1-1.22-1.73-1.22s-1.17.46-1.74,1.22a3.1,3.1,0,0,1-2.53,1.61,3.12,3.12,0,0,1-2.53-1.61C249,1.46,248.61,1,247.83,1s-1.16.46-1.73,1.22a3.12,3.12,0,0,1-2.53,1.61A3.1,3.1,0,0,1,241,2.22c-.57-.76-1-1.22-1.74-1.22s-1.16.46-1.73,1.22A3.1,3.1,0,0,1,235,3.83a3.12,3.12,0,0,1-2.53-1.61c-.57-.76-.95-1.22-1.73-1.22s-1.16.46-1.73,1.22a3.12,3.12,0,0,1-2.53,1.61A3.1,3.1,0,0,1,224,2.22c-.57-.76-1-1.22-1.74-1.22s-1.16.46-1.73,1.22A3.1,3.1,0,0,1,218,3.83a3.12,3.12,0,0,1-2.53-1.61c-.57-.76-1-1.22-1.73-1.22s-1.17.46-1.73,1.22a3.13,3.13,0,0,1-2.54,1.61,3.12,3.12,0,0,1-2.53-1.61C206.37,1.46,206,1,205.2,1s-1.16.46-1.73,1.22a3.12,3.12,0,0,1-2.53,1.61,3.1,3.1,0,0,1-2.53-1.61c-.57-.76-1-1.22-1.74-1.22s-1.16.46-1.73,1.22a2.79,2.79,0,0,1-5.05,0c-.57-.76-1-1.22-1.73-1.22s-1.17.46-1.73,1.22a3.12,3.12,0,0,1-2.53,1.61,3.1,3.1,0,0,1-2.53-1.61c-.57-.76-1-1.22-1.73-1.22s-1.16.46-1.73,1.22a3.12,3.12,0,0,1-2.53,1.61,3.1,3.1,0,0,1-2.53-1.61c-.57-.76-1-1.22-1.73-1.22s-1.17.46-1.74,1.22a3.1,3.1,0,0,1-2.53,1.61,3.12,3.12,0,0,1-2.53-1.61c-.57-.76-.95-1.22-1.73-1.22s-1.16.46-1.73,1.22a3.1,3.1,0,0,1-2.53,1.61,3.12,3.12,0,0,1-2.53-1.61c-.57-.76-1-1.22-1.73-1.22s-1.16.46-1.73,1.22a3.12,3.12,0,0,1-2.53,1.61,3.1,3.1,0,0,1-2.53-1.61c-.57-.76-1-1.22-1.74-1.22s-1.16.46-1.73,1.22a3.1,3.1,0,0,1-2.53,1.61,3.12,3.12,0,0,1-2.53-1.61C138.18,1.46,137.8,1,137,1s-1.16.46-1.73,1.22a3.12,3.12,0,0,1-2.53,1.61,3.1,3.1,0,0,1-2.53-1.61c-.57-.76-1-1.22-1.73-1.22s-1.17.46-1.74,1.22a3.12,3.12,0,0,1-2.53,1.61,3.1,3.1,0,0,1-2.53-1.61c-.57-.76-1-1.22-1.73-1.22s-1.17.46-1.74,1.22a3.1,3.1,0,0,1-2.53,1.61,3.12,3.12,0,0,1-2.53-1.61c-.57-.76-1-1.22-1.73-1.22s-1.17.46-1.73,1.22a3.13,3.13,0,0,1-2.54,1.61,3.12,3.12,0,0,1-2.53-1.61c-.57-.76-1-1.22-1.73-1.22s-1.16.46-1.73,1.22a3.12,3.12,0,0,1-2.53,1.61,3.13,3.13,0,0,1-2.54-1.61c-.56-.76-1-1.22-1.73-1.22s-1.16.46-1.73,1.22a3.12,3.12,0,0,1-2.53,1.61,3.13,3.13,0,0,1-2.54-1.61C87,1.46,86.63,1,85.85,1s-1.16.46-1.73,1.22a3.13,3.13,0,0,1-2.54,1.61,3.12,3.12,0,0,1-2.53-1.61C78.48,1.46,78.1,1,77.32,1s-1.17.46-1.73,1.22a3.13,3.13,0,0,1-2.54,1.61,3.12,3.12,0,0,1-2.53-1.61C70,1.46,69.56,1,68.79,1s-1.17.46-1.74,1.22a2.79,2.79,0,0,1-5.06,0C61.42,1.46,61,1,60.25,1s-1.16.46-1.73,1.22A3.1,3.1,0,0,1,56,3.83a3.12,3.12,0,0,1-2.53-1.61C52.89,1.46,52.5,1,51.73,1S50.56,1.46,50,2.22a3.1,3.1,0,0,1-2.53,1.61,3.12,3.12,0,0,1-2.53-1.61C44.36,1.46,44,1,43.2,1S42,1.46,41.46,2.22a2.79,2.79,0,0,1-5.06,0c-.57-.76-1-1.22-1.74-1.22s-1.16.46-1.73,1.22A3.12,3.12,0,0,1,30.4,3.83a3.12,3.12,0,0,1-2.54-1.61C27.29,1.46,26.91,1,26.13,1S25,1.46,24.39,2.22a3.12,3.12,0,0,1-2.53,1.61,3.13,3.13,0,0,1-2.54-1.61C18.76,1.46,18.37,1,17.59,1s-1.17.46-1.73,1.22a3.13,3.13,0,0,1-2.54,1.61,3.1,3.1,0,0,1-2.53-1.61C10.22,1.46,9.83,1,9.05,1s-1.17.46-1.74,1.22A3.12,3.12,0,0,1,4.78,3.83,3.12,3.12,0,0,1,2.24,2.22C1.67,1.46,1.28,1,.5,1A.5.5,0,0,1,0,.5.5.5,0,0,1,.5,0,3.14,3.14,0,0,1,3,1.62c.57.75,1,1.21,1.74,1.21s1.16-.46,1.73-1.21A3.14,3.14,0,0,1,9.05,0a3.14,3.14,0,0,1,2.54,1.62c.57.75.95,1.21,1.73,1.21s1.17-.46,1.74-1.21A3.11,3.11,0,0,1,17.59,0a3.11,3.11,0,0,1,2.53,1.62c.57.75,1,1.21,1.74,1.21S23,2.37,23.59,1.62A3.13,3.13,0,0,1,26.13,0a3.13,3.13,0,0,1,2.53,1.62c.57.75,1,1.21,1.74,1.21s1.16-.46,1.73-1.21A3.13,3.13,0,0,1,34.66,0,3.13,3.13,0,0,1,37.2,1.62c.57.75.95,1.21,1.73,1.21s1.17-.46,1.73-1.21a2.79,2.79,0,0,1,5.07,0c.57.75,1,1.21,1.73,1.21s1.17-.46,1.74-1.21a2.79,2.79,0,0,1,5.06,0c.57.75,1,1.21,1.73,1.21s1.17-.46,1.73-1.21a2.79,2.79,0,0,1,5.07,0c.57.75,1,1.21,1.73,1.21s1.17-.46,1.73-1.21a2.79,2.79,0,0,1,5.07,0c.57.75,1,1.21,1.73,1.21s1.17-.46,1.74-1.21a2.79,2.79,0,0,1,5.06,0c.57.75,1,1.21,1.73,1.21s1.17-.46,1.74-1.21a2.79,2.79,0,0,1,5.06,0c.57.75,1,1.21,1.74,1.21s1.16-.46,1.73-1.21a2.79,2.79,0,0,1,5.06,0c.57.75,1,1.21,1.74,1.21s1.16-.46,1.73-1.21a2.79,2.79,0,0,1,5.06,0c.57.75,1,1.21,1.73,1.21s1.17-.46,1.74-1.21a2.79,2.79,0,0,1,5.06,0c.57.75,1,1.21,1.73,1.21s1.17-.46,1.74-1.21a2.79,2.79,0,0,1,5.06,0c.57.75,1,1.21,1.73,1.21s1.16-.46,1.73-1.21a2.79,2.79,0,0,1,5.07,0c.56.75.95,1.21,1.73,1.21s1.16-.46,1.73-1.21a2.79,2.79,0,0,1,5.06,0c.57.75.95,1.21,1.73,1.21s1.17-.46,1.73-1.21a2.79,2.79,0,0,1,5.07,0c.57.75.95,1.21,1.73,1.21s1.16-.46,1.73-1.21a2.79,2.79,0,0,1,5.06,0c.57.75,1,1.21,1.73,1.21s1.16-.46,1.73-1.21a2.79,2.79,0,0,1,5.06,0c.57.75,1,1.21,1.73,1.21s1.17-.46,1.73-1.21a2.79,2.79,0,0,1,5.07,0c.57.75.95,1.21,1.73,1.21s1.16-.46,1.73-1.21a2.79,2.79,0,0,1,5.06,0c.57.75,1,1.21,1.73,1.21s1.16-.46,1.73-1.21a2.78,2.78,0,0,1,5.05,0c.57.75,1,1.21,1.73,1.21s1.17-.46,1.73-1.21a2.79,2.79,0,0,1,5.06,0c.57.75,1,1.21,1.74,1.21s1.16-.46,1.73-1.21a2.79,2.79,0,0,1,5.06,0c.57.75,1,1.21,1.73,1.21s1.17-.46,1.74-1.21a2.79,2.79,0,0,1,5.06,0c.57.75,1,1.21,1.73,1.21s1.16-.46,1.73-1.21a2.79,2.79,0,0,1,5.06,0c.57.75,1,1.21,1.74,1.21s1.16-.46,1.73-1.21a2.79,2.79,0,0,1,5.06,0c.57.75,1,1.21,1.73,1.21s1.17-.46,1.73-1.21a2.79,2.79,0,0,1,5.07,0c.56.75.95,1.21,1.73,1.21s1.16-.46,1.73-1.21a2.79,2.79,0,0,1,5.06,0c.57.75,1,1.21,1.73,1.21s1.17-.46,1.74-1.21a2.79,2.79,0,0,1,5.06,0c.56.75.95,1.21,1.73,1.21s1.16-.46,1.73-1.21a2.79,2.79,0,0,1,5.06,0c.57.75,1,1.21,1.73,1.21s1.17-.46,1.74-1.21a2.79,2.79,0,0,1,5.06,0c.57.75.95,1.21,1.73,1.21s1.16-.46,1.73-1.21a2.79,2.79,0,0,1,5.06,0c.57.75,1,1.21,1.73,1.21s1.17-.46,1.73-1.21a2.79,2.79,0,0,1,5.06,0c.57.75,1,1.21,1.74,1.21s1.16-.46,1.73-1.21a2.79,2.79,0,0,1,5.06,0c.57.75.95,1.21,1.73,1.21a.5.5,0,0,1,.5.5A.5.5,0,0,1,303.24,3.83Z"/></svg>